<svg width="180" height="440" viewBox="0 0 180 440" fill="none" xmlns="http://www.w3.org/2000/svg">
<mask id="mask0" mask-type="alpha" maskUnits="userSpaceOnUse" x="0" y="0" width="180" height="440">
<rect width="180" height="440" fill="#C4C4C4"/>
</mask>
<g mask="url(#mask0)">
<path d="M-62.3727 49.6386C-47.5322 27.6627 -22.8491 12.9618 11.9157 5.60648L26.6442 2.833C60.0207 -2.29654 87.8357 2.63411 110.022 17.8687C132.208 33.1032 146.298 56.3333 152.224 87.8025C156.532 110.679 155.367 130.889 148.62 148.452C141.873 166.015 130.79 180.35 115.481 191.437C100.062 202.545 81.3991 210.219 59.47 214.348L49.7601 216.177C47.2508 216.649 44.6154 216.452 42.3574 215.26C39.3608 213.744 37.5683 211.424 36.9379 208.076L12.6249 78.9628L9.67919 79.5175C-3.41681 82.5614 -13.5202 87.6993 -20.652 94.8198C-27.7628 102.052 -30.2655 110.958 -28.2272 121.783C-26.441 131.268 -25.3434 139.497 -23.6131 144.486C-18.38 159.678 -16.2723 163.672 -10.3055 176.761C-8.93239 179.853 -6.64044 182.426 -4.74285 185.304C0.90788 193.715 7.72069 201.098 8.49735 202.223C9.42512 203.551 29.6494 225.163 46.5173 234.351L102.329 261.973C102.791 264.428 70.9556 273.542 69.6553 275.636C68.4642 277.709 50.0384 279.446 47.42 279.939C40.1103 281.315 -0.44232 256.135 -11.426 250C-22.5188 243.884 -39.3973 226.841 -48.5158 212.613C-68.6296 181.388 -71.6469 151.567 -75.5135 131.034C-81.4563 98.8745 -77.0831 71.7055 -62.3727 49.6386ZM67.2706 139.389L68.1434 139.225C81.89 136.636 92.2326 131.569 99.1712 124.023C106.001 116.497 108.44 107.256 106.423 96.5427C104.448 86.053 98.8561 78.5552 89.7571 74.029C80.658 69.5027 69.1807 68.5441 55.325 71.1532L54.4522 71.3175L67.2706 139.389Z" fill="white" fill-opacity="0.5"/>
<path d="M-42.1499 271.616C-40.8957 269.877 -39.2972 268.768 -37.2243 268.377L161.665 230.925C163.956 230.493 165.849 230.946 167.54 232.13C169.232 233.313 170.31 234.843 170.689 236.852L177.959 275.463C178.359 277.583 177.931 279.513 176.765 281.119C175.599 282.725 173.87 283.744 171.688 284.155L11.3115 314.355L28.0175 403.071C28.4167 405.192 27.9892 407.121 26.714 408.748C25.4388 410.375 23.7102 411.393 21.4191 411.825L-9.23799 417.598C-11.3109 417.988 -13.1826 417.647 -14.9621 416.596C-16.7417 415.544 -17.8416 413.903 -18.2409 411.782L-43.5835 277.201C-43.8527 275.172 -43.4041 273.354 -42.1499 271.616Z" fill="white" fill-opacity="0.5"/>
</g>
</svg>
