<svg width="570" height="629" viewBox="0 0 570 629" fill="none" xmlns="http://www.w3.org/2000/svg">
<path d="M77.0256 580.028C104.671 580.028 127.083 573.706 127.083 565.908C127.083 558.11 104.671 551.789 77.0256 551.789C49.3799 551.789 26.9687 558.11 26.9687 565.908C26.9687 573.706 49.3799 580.028 77.0256 580.028Z" fill="#FFBCB0"/>
<path d="M527.695 580.028C545.288 580.028 559.55 576.006 559.55 571.044C559.55 566.082 545.288 562.06 527.695 562.06C510.102 562.06 495.84 566.082 495.84 571.044C495.84 576.006 510.102 580.028 527.695 580.028Z" fill="#FFBCB0"/>
<path d="M286.215 472.892C264.985 464.77 268.237 457.516 215.372 434.55C168.421 414.152 57.0507 456.686 11.9356 312.128C-52.5309 105.565 154.031 -56.7606 393.789 18.9102C442.732 34.3568 589.373 126.171 567.86 290.52C556.749 375.402 495.946 448.227 414.034 471.745C376.802 482.436 330.73 489.92 286.215 472.892Z" fill="#F6E3D3"/>
<path d="M297.464 139.539H207.763V308.676H297.464V139.539Z" fill="white"/>
<path d="M297.014 0.443115H208.276V132.517H297.014V0.443115Z" fill="white"/>
<path d="M394.283 139.539H304.582V308.676H394.283V139.539Z" fill="white"/>
<path d="M394.006 0.443115H304.236V132.517H394.006V0.443115Z" fill="white"/>
<path d="M491.102 139.539H401.402V308.676H491.102V139.539Z" fill="white"/>
<path d="M490.997 0.443115H401.228V132.517H490.997V0.443115Z" fill="white"/>
<path d="M352.341 628.759C423.293 628.759 480.811 613.238 480.811 594.092C480.811 574.947 423.293 559.426 352.341 559.426C281.389 559.426 223.87 574.947 223.87 594.092C223.87 613.238 281.389 628.759 352.341 628.759Z" fill="#FFBCB0"/>
<path d="M285.733 602.693C400.7 602.693 493.899 582.528 493.899 557.653C493.899 532.778 400.7 512.613 285.733 512.613C170.766 512.613 77.5669 532.778 77.5669 557.653C77.5669 582.528 170.766 602.693 285.733 602.693Z" fill="#FFBCB0"/>
<path d="M320.8 515.274L244.195 525.139L167.291 513.959L163.083 515.955L159.777 523.021L244.206 543.032L328.636 523.021L325.294 516.922L320.8 515.274Z" fill="#F6E3D3"/>
<path d="M325.302 516.918L244.195 527.628L163.11 515.967L159.777 523.021L244.206 543.075L328.636 523.021L325.302 516.918Z" fill="#BC7E55"/>
<path d="M333.582 557.476L253.537 524.747C247.575 522.183 240.818 522.183 234.856 524.747L154.321 557.476L152.776 573.342L157.474 574.708L239.331 545.212C242.485 544.081 245.932 544.081 249.085 545.212L330.879 574.649L335.641 573.345L333.582 557.476Z" fill="#F6E3D3"/>
<path d="M329.252 559.582L253.082 528.435C247.407 525.996 240.979 525.996 235.303 528.435L158.667 559.578L157.196 574.677L239.563 545.13C242.563 544.054 245.846 544.054 248.846 545.13L331.213 574.677L329.252 559.582Z" fill="#BC7E55"/>
<path d="M244.206 531.144C239.178 531.144 235.103 527.076 235.103 522.062V423.029C235.103 420.876 236.853 419.131 239.01 419.131H249.395C251.552 419.131 253.302 420.876 253.302 423.029V522.062C253.306 527.076 249.234 531.144 244.206 531.144Z" fill="#BC7E55"/>
<path d="M100.456 307.568C102.323 298.075 106.715 294.509 108.763 293.057C117.317 287.001 128.965 290.814 132.024 291.812C146.724 296.623 154.564 309.592 156.529 312.954C163.208 324.357 162.816 331.36 172.359 345.292C175.614 350.048 177.83 349.21 178.159 349.022C180.548 347.668 174.406 332.233 173.174 329.951C161.432 308.202 148.944 294.603 134.515 266.11C131.903 260.954 129.22 253.47 130.746 244.553C132.122 236.52 136.648 230.879 139.053 228.801C153.427 216.376 183.258 209.095 215.054 206.461C235.28 204.781 248.909 204.394 273.351 206.461C305.143 209.15 334.982 216.38 349.352 228.801C351.756 230.879 356.286 236.52 357.659 244.553C359.185 253.47 356.502 260.954 353.89 266.11C339.461 294.603 326.973 308.202 315.23 329.951C313.999 332.229 307.857 347.668 310.245 349.022C310.575 349.21 312.787 350.044 316.046 345.292C325.589 331.36 325.196 324.361 331.876 312.954C333.844 309.592 341.685 296.619 356.38 291.812C359.44 290.81 371.088 287.001 379.642 293.057C381.689 294.505 386.082 298.071 387.949 307.568C391.063 323.386 375.34 360.194 361.781 380.115C352.827 393.276 348.168 399.989 339.351 406.647C324.482 417.874 309.124 421.953 295.738 422.814C277.316 424 211.081 424 192.659 422.814C179.273 421.953 163.914 417.874 149.046 406.647C140.229 399.989 135.57 393.276 126.616 380.115C113.065 360.194 97.3418 323.386 100.456 307.568Z" fill="#EB9E94"/>
<path d="M380.72 306.977C382.646 319.891 363.189 364.316 338.837 378.639C328.455 384.746 320.407 388.868 304.531 390.187C255.502 394.25 225.478 396.501 176.084 389.392C159.357 386.985 150.548 384.335 142.178 377.841C121.043 361.443 113.559 339.459 111.069 332.46C108.559 325.406 101.476 301.113 111.885 293.801C124.647 284.837 143.371 299.398 146.449 302.42C155.192 311.009 159.824 321.961 161.475 326.35C163.91 332.832 167.723 345.644 177.532 351.023C193.035 359.525 275.751 375.077 311.622 350.279C318.348 345.628 323.016 332.554 323.016 332.554C324.816 328.702 328.601 316.849 334.417 308.625C334.417 308.625 342.638 295.789 358.098 292.082C373.182 288.457 379.195 296.748 380.72 306.977Z" fill="#D87E77"/>
<path d="M329.769 16.9531H464.17C472.935 16.9531 480.042 24.0462 480.042 32.795V95.8338C480.042 104.583 472.935 111.676 464.17 111.676H365.993L347.893 128.183V111.676H329.769C321.004 111.676 313.897 104.583 313.897 95.8338V32.795C313.897 24.0462 321.004 16.9531 329.769 16.9531Z" fill="#FFBCB0"/>
<path d="M425.518 90.7019C425.518 92.6278 423.953 94.1897 422.023 94.1897C420.094 94.1897 418.529 92.6278 418.529 90.7019C418.529 88.776 420.094 87.2141 422.023 87.2141C423.953 87.2141 425.518 88.776 425.518 90.7019Z" fill="#D87E77"/>
<path d="M438.982 93.1693C440.347 91.8073 440.347 89.599 438.982 88.2369C437.617 86.8749 435.405 86.8748 434.04 88.2369C432.676 89.5989 432.676 91.8073 434.04 93.1693C435.405 94.5314 437.617 94.5314 438.982 93.1693Z" fill="#D87E77"/>
<path d="M454.42 91.5326C454.863 89.658 453.7 87.7794 451.822 87.3368C449.944 86.8941 448.062 88.055 447.618 89.9296C447.175 91.8043 448.338 93.6828 450.216 94.1255C452.094 94.5681 453.976 93.4073 454.42 91.5326Z" fill="#D87E77"/>
<path d="M454.329 44.0257H373.83C371.892 44.0257 370.319 42.456 370.319 40.5223C370.319 38.5885 371.892 37.0188 373.83 37.0188H454.329C456.267 37.0188 457.84 38.5885 457.84 40.5223C457.84 42.456 456.267 44.0257 454.329 44.0257Z" fill="white"/>
<path d="M454.329 60.7601H337.229C335.292 60.7601 333.719 59.1904 333.719 57.2566C333.719 55.3229 335.292 53.7532 337.229 53.7532H454.329C456.267 53.7532 457.84 55.3229 457.84 57.2566C457.84 59.1904 456.267 60.7601 454.329 60.7601Z" fill="white"/>
<path d="M454.329 77.4906H337.229C335.292 77.4906 333.719 75.9208 333.719 73.9871C333.719 72.0533 335.292 70.4836 337.229 70.4836H454.329C456.267 70.4836 457.84 72.0533 457.84 73.9871C457.84 75.9248 456.267 77.4906 454.329 77.4906Z" fill="white"/>
<path d="M408.202 94.2249H337.229C335.292 94.2249 333.719 92.6552 333.719 90.7215C333.719 88.7877 335.292 87.218 337.229 87.218H408.202C410.14 87.218 411.713 88.7877 411.713 90.7215C411.713 92.6591 410.14 94.2249 408.202 94.2249Z" fill="white"/>
<path d="M125.93 221.759L111.818 147.47C111.63 146.479 110.763 145.763 109.755 145.763H41.7038C40.6958 145.763 39.8291 146.479 39.6408 147.47L25.5333 221.759C25.2901 223.05 26.2784 224.244 27.5962 224.244H123.867C125.18 224.244 126.173 223.047 125.93 221.759Z" fill="white"/>
<path d="M79.6926 244.588C78.8219 236.407 84.0657 228.781 85.5875 226.761C85.7483 226.546 85.5953 226.241 85.3286 226.241H76.2138H75.249H66.1342C65.8675 226.241 65.7145 226.546 65.8753 226.761C67.3971 228.781 72.6408 236.407 71.7701 244.588C70.0131 261.099 56.1369 275.747 56.1369 289.119C56.1369 295.343 59.4549 305.067 60.51 308.402C60.6825 308.946 61.1924 309.318 61.765 309.318H75.7314H89.6977C90.2704 309.318 90.7802 308.946 90.9528 308.402C92.0078 305.067 95.3259 295.343 95.3259 289.119C95.3219 275.743 81.4497 261.099 79.6926 244.588Z" fill="#282444"/>
<path d="M122.608 276.467C121.325 274.091 119.156 272.565 116.332 272.056C114.442 271.715 112.857 271.864 111.563 272.24C111.606 270.576 111.614 268.909 111.591 267.237C111.587 266.983 111.379 266.783 111.128 266.783H76.4021C76.1471 266.783 75.9432 266.987 75.9393 267.237C75.6726 284.919 79.3867 302.714 82.5361 308.821C82.693 309.122 83.0029 309.314 83.3441 309.314H104.186C104.527 309.314 104.841 309.122 104.994 308.821C105.915 307.036 106.884 304.252 107.786 300.768C112.167 299.187 119.541 294.584 122.859 286.849C124.039 284.101 124.42 279.822 122.608 276.467ZM119.737 285.518C117.372 291.029 112.41 294.811 108.747 296.678C110.002 290.763 111.018 283.521 111.422 275.927C112.438 275.403 113.822 275.05 115.732 275.395C117.529 275.72 118.835 276.62 119.619 278.076C120.886 280.425 120.568 283.58 119.737 285.518Z" fill="#7764A6"/>
<path d="M525.13 262.919C519.984 255.251 523.863 241.66 536.182 235.401C539.085 233.929 542.995 231.118 544.297 227.219C544.673 226.096 544.336 225.094 544.626 225.113C544.987 225.137 545.093 227.556 545.124 228.214C545.344 233.24 544.23 237.366 543.76 239.742C542.191 247.618 544.752 257.995 537.586 265.029C532.429 270.087 527.687 266.724 525.13 262.919Z" fill="#3A4A1D"/>
<path d="M514.093 232.128C514.364 232.155 513.76 232.504 514.038 233.388C514.43 234.637 515.474 235.385 516.105 236.074C518.376 238.552 518.878 241.734 518.717 244.991C518.6 247.371 516.78 250.816 515.078 249.622C506.924 243.911 512.56 235.792 513.223 234.363C514.03 232.629 513.744 232.097 514.093 232.128Z" fill="#3A4A1D"/>
<path d="M521.529 275.446C525.357 271.668 520.306 250.397 503.025 239.906C501.237 238.822 498.311 236.767 497.766 237.186C497.491 237.397 499.37 237.738 498.801 239.542C492.569 259.365 513.423 259.365 514.501 272.036C514.819 275.778 519.376 277.571 521.529 275.446Z" fill="#516123"/>
<path d="M564.201 241.93C563.06 242.987 559.558 242.576 556.279 244.008C553.216 245.347 551.902 248.385 550.549 252.757C548.223 260.261 541.599 271.727 532.319 271.809C517.306 271.942 530.891 254.914 544.313 245.703C550.109 241.726 558.083 241.652 561.664 241.609C563.786 241.574 564.731 241.441 564.201 241.93Z" fill="#516123"/>
<path d="M523.891 225.235C525.032 224.683 523.502 229.22 529.232 235.029C541.453 247.422 538.928 272.443 526.126 273.704C521.043 274.205 502.123 253.991 522.526 230.32C524.934 227.525 523.463 225.442 523.891 225.235Z" fill="#516123"/>
<path d="M537.551 244.114C537.625 243.241 540.665 252.209 541.03 256.597C541.818 266.113 540.583 271.351 536.88 275.316C532.57 279.928 525.251 281.822 520.91 277.673C517.027 273.962 516.811 267.386 520.165 262.798C522.557 259.525 523.377 259.396 529.978 252.385C534.052 248.052 537.21 248.142 537.551 244.114Z" fill="#9FBC50"/>
<path d="M546.309 273.813C546.207 272.615 545.203 271.692 543.999 271.692H530.923H524.51H511.434C510.23 271.692 509.226 272.612 509.124 273.813L507.677 290.105V292.438C507.677 301.313 514.886 309.318 523.773 309.318H524.514H530.927H531.668C540.559 309.318 547.764 301.313 547.764 292.438V290.105L546.309 273.813Z" fill="#EB9E94"/>
<path d="M343.834 541.951C345.16 545.502 345.065 547.925 345.156 555.793C345.23 562.51 345.34 564.428 345.815 566.996C346.258 569.388 346.87 571.561 348.458 573.588C349.823 575.33 351.098 575.933 352.419 576.884C356.192 579.597 356.467 582.345 360.346 588.749C363.197 593.458 364.813 596.128 367.609 598.637C371.618 602.231 375.7 603.393 382.137 605.229C385.133 606.082 392.059 607.844 401.288 607.867C412.768 607.895 416.368 605.21 417.796 603.914C419.906 602 420.345 600.336 420.439 599.96C421.329 596.288 418.568 592.781 415.815 589.415C409.457 581.637 406.281 577.746 403.927 575.573C403.927 575.573 393.369 565.826 383.454 552.505C371.963 537.07 373.218 530.811 366.284 528.775C356.784 525.992 342.912 534.361 343.171 539.979C343.202 540.581 343.375 540.722 343.834 541.951Z" fill="#F79556"/>
<path d="M241.343 319.092C245.673 314.062 254.337 317.969 272.206 317.511C279.25 317.331 287.188 315.812 303.068 312.77C316.246 310.249 318.031 309.322 342.638 304.084C349.387 302.647 359.816 300.479 373.5 300.134C383.913 299.872 388.4 300.866 392.495 303.293C400.817 308.233 403.661 316.845 404.367 319.088C405.088 321.39 407.402 328.761 404.367 336.465C402.115 342.18 397.985 345.37 394.079 348.314C375.006 362.676 365.468 369.859 355.302 374.376C347.713 377.751 339.441 381.426 329.189 383.063C294.581 388.59 255.188 368.051 242.932 339.624C241.524 336.375 236.499 324.721 241.343 319.092Z" fill="#3A4A1D"/>
<path d="M143.924 331.419C141.978 340.994 145.32 349.202 147.571 354.73C148.748 357.622 152.187 365.843 159.247 372.212C166.334 378.608 173.767 380.154 195.742 383.137C221.36 386.613 234.17 388.355 249.023 388.966C261.177 389.467 273.374 389.69 285.517 388.966C286.431 388.911 289.384 388.719 290.628 390.422C292.122 392.469 290.628 396.979 289.757 400.279C287.698 408.096 289.651 416.222 292.816 429.03C296.962 445.804 294.699 441.345 301.574 461.81C310.269 487.697 315.442 508.432 315.442 508.432C321.086 531.061 321.337 538.687 328.581 542.668C334.986 546.191 342.583 544.288 357.777 540.484C366.609 538.272 373.539 534.451 374.563 531.014C375.324 528.458 374.218 526.047 373.833 525.186C367.284 510.565 346.207 386.03 342.449 369.299C339.61 356.652 336.288 352.44 335.15 351.089C329.318 344.157 322.149 342.434 308.147 337.976C297.593 334.617 287.415 330.088 276.763 327.05C258.639 321.879 252.65 321.394 224.945 312.05C211.826 307.627 204.288 305.254 193.561 304.765C186.035 304.421 178.312 304.151 169.476 307.678C166.562 308.836 147.548 313.584 143.924 331.419Z" fill="#516123"/>
<path d="M312.187 348.447C315.046 344.528 318.447 340.998 322.169 337.842C325.891 334.683 329.942 331.892 334.241 329.552C338.535 327.203 343.065 325.285 347.74 323.86C352.415 322.439 357.235 321.511 362.091 321.276C357.451 322.705 352.913 324.224 348.501 326.005C344.089 327.786 339.81 329.845 335.641 332.108C331.479 334.382 327.448 336.883 323.561 339.631C319.666 342.379 315.925 345.354 312.187 348.447Z" fill="#516123"/>
<path d="M343.716 548.496C341.708 548.669 335.707 566.793 339.371 573.471C340.653 575.808 358.577 590.675 367.064 597.11C368.656 598.316 373.1 601.581 379.171 604.536C382.019 605.922 389.765 610.474 403.672 610.94C408.614 611.105 416.513 609.237 421.553 606.56C424.73 604.873 425.718 603.373 426.15 602.728C428.467 599.279 425.624 592.851 425.008 591.634C422.29 586.291 418.517 584.897 411.163 579.816C399.174 571.533 392.808 562.514 385.957 552.16C384.054 549.287 385.262 547.667 383.47 546.445C380.501 544.421 371.547 549.753 363.424 556.525C361.126 558.439 357.945 560.447 353.462 558.623C346.548 555.82 346.085 548.297 343.716 548.496Z" fill="#1E1735"/>
<path d="M340.394 565.07C343.598 567.552 346.901 569.877 350.203 572.214L360.114 579.202L370.029 586.181C373.331 588.51 376.618 590.859 379.94 593.137C380.76 593.701 381.599 594.3 382.403 594.82C382.819 595.102 383.187 595.329 383.611 595.552C384.027 595.779 384.462 595.995 384.901 596.206C386.659 597.048 388.51 597.741 390.377 598.359C394.118 599.6 398.021 600.332 401.951 600.575C405.88 600.77 409.857 600.418 413.673 599.33C414.156 599.208 414.627 599.052 415.101 598.899C415.58 598.751 416.038 598.59 416.497 598.402C417.419 598.034 418.325 597.608 419.227 597.169C420.129 596.727 421.019 596.253 421.886 595.744C422.753 595.235 423.635 594.73 424.396 594.065C423.012 595.56 421.302 596.715 419.6 597.831C418.741 598.386 417.854 598.899 416.937 599.373C416.478 599.612 415.999 599.831 415.529 600.027C415.054 600.23 414.579 600.438 414.093 600.61C410.214 602.054 406.045 602.739 401.888 602.716C397.723 602.72 393.585 602 389.596 600.841C387.604 600.246 385.654 599.51 383.752 598.633C383.278 598.41 382.803 598.183 382.329 597.928C381.854 597.682 381.36 597.384 380.932 597.103C380.038 596.531 379.218 595.967 378.371 595.388C375.049 593.047 371.759 590.687 368.499 588.279C365.264 585.844 362.008 583.429 358.832 580.912C355.639 578.419 352.486 575.87 349.376 573.271C346.301 570.641 343.198 568.01 340.394 565.07Z" fill="#7764A6"/>
<path d="M374.496 566.264C375.845 565.466 377.159 564.863 378.454 564.264L382.285 562.518C383.548 561.939 384.807 561.367 386.058 560.752C387.317 560.126 388.549 559.539 389.824 558.65C389.686 559.429 389.286 560.138 388.851 560.796C388.392 561.43 387.866 562.021 387.286 562.534C386.133 563.571 384.815 564.389 383.427 565.019C382.034 565.646 380.568 566.096 379.065 566.327C377.567 566.55 376.03 566.589 374.496 566.264Z" fill="#7764A6"/>
<path d="M378.591 571.142C379.94 570.343 381.254 569.74 382.548 569.141L386.38 567.396C387.643 566.816 388.902 566.245 390.153 565.63C391.412 565.004 392.644 564.417 393.918 563.528C393.781 564.307 393.381 565.016 392.946 565.673C392.487 566.307 391.961 566.899 391.381 567.411C390.228 568.449 388.91 569.267 387.521 569.897C386.129 570.523 384.662 570.974 383.16 571.204C381.658 571.428 380.121 571.467 378.591 571.142Z" fill="#7764A6"/>
<path d="M382.681 576.023C384.031 575.225 385.345 574.622 386.639 574.023L390.471 572.277C391.734 571.698 392.993 571.126 394.244 570.512C395.503 569.885 396.734 569.298 398.009 568.409C397.872 569.188 397.472 569.897 397.036 570.555C396.577 571.189 396.052 571.78 395.471 572.293C394.318 573.33 393 574.148 391.612 574.778C390.22 575.405 388.753 575.855 387.251 576.086C385.752 576.305 384.215 576.344 382.681 576.023Z" fill="#7764A6"/>
<path d="M386.776 580.901C388.125 580.102 389.439 579.499 390.733 578.9L394.565 577.154C395.828 576.575 397.087 576.004 398.338 575.389C399.597 574.763 400.829 574.175 402.103 573.287C401.966 574.066 401.566 574.774 401.131 575.432C400.672 576.066 400.146 576.657 399.566 577.17C398.413 578.207 397.095 579.026 395.707 579.656C394.314 580.282 392.847 580.732 391.345 580.963C389.843 581.186 388.306 581.225 386.776 580.901Z" fill="#7764A6"/>
<path d="M370.406 561.383C371.755 560.584 373.069 559.982 374.363 559.383L378.195 557.637C379.458 557.057 380.717 556.486 381.968 555.871C383.227 555.245 384.458 554.658 385.733 553.769C385.596 554.548 385.196 555.257 384.76 555.914C384.301 556.549 383.776 557.14 383.195 557.652C382.042 558.69 380.724 559.508 379.336 560.138C377.944 560.764 376.477 561.215 374.975 561.446C373.473 561.669 371.935 561.708 370.406 561.383Z" fill="#7764A6"/>
<path d="M261.138 383.399C257.286 383.309 254.262 383.239 250.383 382.299C245.449 381.105 238.335 378.181 232.738 383.415C225.726 389.972 228.561 400.901 230.985 405.493C231.703 406.855 233.064 408.738 235.668 410.57C238.586 412.621 240.739 412.609 245.026 413.635C251.348 415.146 265.624 423.589 269.947 425.621C272.563 426.854 279.897 430.205 289.525 429.704C293.42 429.504 301.358 429.093 308.524 423.343C310.916 421.421 317.227 416.359 317.995 407.896C318.682 400.326 314.505 394.751 313.183 392.99C307.582 385.517 299.295 383.513 296.185 382.761C290.035 381.274 284.07 381.814 272.135 382.898C269.597 383.133 266.087 383.517 261.138 383.399Z" fill="#1E1735"/>
<path d="M260.855 388.809C258.035 388.379 253.937 387.306 250.43 385.58C240.782 380.835 234.668 385.149 234.013 385.795C229.754 389.991 229.248 396.728 231.028 401.692C231.546 403.136 233.464 407.79 237.97 409.838C240.276 410.887 248.56 412.002 259.192 417.444C266.578 421.221 270.217 423.21 274.014 424.071C276.092 424.541 281.964 425.676 289.282 424.227C294.702 423.155 301.025 421.898 305.241 416.312C305.923 415.408 310.359 409.333 308.516 402.095C306.876 395.671 301.346 392.493 298.248 390.715C289.721 385.818 280.45 386.621 276.987 386.918C269.041 387.603 267.793 389.87 260.855 388.809Z" fill="#BC7E55"/>
<path d="M298.244 390.712C296.518 389.596 294.632 388.719 292.69 388.011C290.737 387.326 288.71 386.84 286.65 386.551C284.595 386.249 282.513 386.155 280.438 386.187C278.363 386.245 276.308 386.406 274.241 386.699C272.182 387.016 270.158 387.576 268.201 388.069C267.221 388.308 266.24 388.504 265.248 388.574C264.256 388.645 263.252 388.633 262.248 388.559C260.236 388.39 258.227 388.003 256.251 387.502C254.266 387.02 252.325 386.367 250.427 385.576C252.219 386.59 254.145 387.349 256.102 388.011C258.071 388.637 260.083 389.146 262.161 389.396C263.201 389.522 264.252 389.573 265.311 389.518C266.37 389.467 267.417 389.287 268.433 389.064C269.448 388.837 270.437 388.567 271.425 388.34C272.414 388.101 273.406 387.925 274.406 387.764C278.414 387.193 282.517 386.969 286.549 387.384C290.584 387.799 294.569 388.864 298.244 390.712Z" fill="#7764A6"/>
<path d="M231.028 401.688C231.566 403.34 232.366 404.917 233.413 406.327C234.464 407.728 235.778 408.973 237.351 409.818C237.735 410.038 238.155 410.229 238.578 410.366C238.998 410.515 239.417 410.636 239.837 410.762L242.351 411.47C244.022 411.944 245.681 412.445 247.324 412.997C250.603 414.109 253.823 415.381 256.941 416.876C260.043 418.391 263.103 420.078 266.232 421.62C267.805 422.384 269.401 423.116 271.068 423.723C272.735 424.337 274.488 424.725 276.226 424.987C277.971 425.249 279.732 425.378 281.493 425.394C283.254 425.418 285.019 425.296 286.76 425.046C288.51 424.807 290.216 424.408 291.914 424.024C293.616 423.621 295.314 423.171 296.954 422.529C300.217 421.253 303.253 419.19 305.237 416.305C304.147 417.659 302.845 418.833 301.409 419.789C299.97 420.744 298.397 421.472 296.769 422.032C295.146 422.607 293.463 423.01 291.769 423.359C290.067 423.695 288.361 424.04 286.658 424.224C283.238 424.592 279.771 424.56 276.379 424.016C274.677 423.746 273.021 423.359 271.425 422.756C269.825 422.161 268.264 421.421 266.711 420.658C263.585 419.15 260.534 417.506 257.369 415.995C254.192 414.527 250.936 413.216 247.583 412.214C245.912 411.701 244.226 411.243 242.535 410.817L240.006 410.178C239.163 409.948 238.347 409.752 237.598 409.349C236.064 408.617 234.735 407.474 233.64 406.15C232.554 404.816 231.675 403.301 231.028 401.688Z" fill="#7764A6"/>
<path d="M338.692 276.135C338.308 270.776 313.246 261.671 302.194 261.671C296.291 261.671 295.216 207.028 284.47 178.284C278.999 163.648 271.21 151.361 257.067 160.884C244.23 169.528 248.387 194.948 251.564 212.313C255.498 233.815 262.467 267.683 270.527 277.74C274.822 283.095 286.349 288.876 306.488 291.667C325.808 294.349 339.229 283.635 338.692 276.135Z" fill="#282444"/>
<path d="M216.67 147.677C212.559 148.057 202.966 149.082 192.596 153.682C151.972 171.7 152.937 205.314 151.972 216C150.211 235.565 148.936 254.296 149.717 264.055C149.87 265.961 150.211 269.985 149.717 275.317C149.003 283.052 147.112 287.271 145.955 291.836C144.081 299.211 140.661 322.654 146.708 327.125C153.996 332.507 159.541 317.366 183.572 314.36C197.734 312.586 203.017 316.18 231.009 320.364C254.69 323.907 259.792 286.312 261.055 271.116C262.236 256.879 265.981 243.234 266.323 227.262C267.076 191.973 276.39 182.931 273.845 178.461C272.449 176.006 254.164 166.96 245.257 158.939C243.461 157.326 233.499 146.127 216.67 147.677Z" fill="#282444"/>
<path d="M264.813 238.524C264.456 234.782 264.354 231.02 264.522 227.266C264.554 225.383 264.75 223.516 264.895 221.637C265.103 219.766 265.334 217.899 265.632 216.039C265.781 215.108 265.95 214.184 266.142 213.26C266.327 212.336 266.495 211.409 266.727 210.493C266.95 209.577 267.17 208.661 267.425 207.752L267.797 206.39L268.221 205.04C269.315 201.427 270.794 197.974 272.276 194.529C272.021 196.4 271.555 198.225 271.159 200.049C270.731 201.865 270.319 203.677 269.923 205.49C269.543 207.306 269.139 209.111 268.821 210.935C268.641 211.843 268.472 212.751 268.315 213.663C268.143 214.571 267.997 215.487 267.864 216.403C267.244 220.052 266.75 223.727 266.28 227.415C265.778 231.098 265.393 234.805 264.813 238.524Z" fill="#1E1735"/>
<path d="M210.649 152.183C210.622 146.487 214.034 145.05 218.925 132.661C225.588 115.778 227.2 100.374 227.2 90.6156C227.2 89.2025 230.64 90.3259 235.476 94.3696C240.324 98.4289 249.066 107.002 252.027 121.399C255.886 140.173 249.607 166.6 235.476 168.702C225.153 170.236 210.697 161.1 210.649 152.183Z" fill="#EC7D40"/>
<path d="M236.503 128.907C236.503 128.907 234.052 131.244 232.044 129.659C228.636 126.966 228.412 120.511 228.353 119.148C228.271 117.34 228.204 112.243 231.307 110.137C235.735 107.135 236.456 112.439 237.213 112.388C237.986 112.337 238.786 110.787 238.692 109.386C238.551 107.331 236.535 106.352 235.001 104.88C231.362 101.388 230.801 95.4579 231.311 92.1149C232.26 85.8596 237.931 82.27 240.171 80.853C250.968 74.0183 263.75 78.336 266.75 79.3498C270.166 80.5046 278.261 83.2408 283.733 91.3634C287.925 97.5874 289.945 103.804 290.404 109.382C290.871 115.034 289.98 122.437 286.686 126.652C286.16 127.326 283.242 132.908 282.995 134.912C282.995 134.912 283.129 138.96 281.517 143.923C277.983 154.809 271.339 161.769 270.441 162.693C266.127 167.144 263.75 167.774 262.318 167.95C261.593 168.036 259.294 168.228 255.674 166.447C252.36 164.819 236.849 154.809 235.739 140.921C235.378 136.392 236.503 128.907 236.503 128.907Z" fill="#F79556"/>
<path d="M291.883 93.0817C285.819 83.8436 277.446 78.3398 275.343 77.0989C262.001 69.2112 245.979 67.6181 242.994 71.8418C242.638 72.3507 241.806 73.8734 239.986 74.8442C237.884 75.9637 236.119 75.4627 234.719 75.5958C229.726 76.0733 224.741 85.1001 224.941 93.6141C225.192 104.402 231.66 110.998 237.719 114.185C239.853 115.308 240.771 117.876 239.892 120.119C238.504 123.646 236.296 128.296 232.468 134.156C226.385 143.465 238.759 163.131 241.496 166.443C243.324 168.659 248.066 173.419 255.039 176.202C258.8 177.705 261.793 178.433 264.068 176.953C272.155 171.688 274.375 159.616 274.277 157.996C274.269 157.878 274.3 157.772 274.371 157.679C275.218 156.559 276.112 155.291 276.979 153.905C277.073 153.756 277.089 153.564 277.022 153.404C276.249 151.607 275.034 150.198 273.1 149.172C268.088 146.522 261.683 147.908 257.643 150.734C255.415 152.292 252.156 151.952 250.356 149.912C245.909 144.874 242.932 137.39 243.759 126.645C244.889 112.004 252.411 103.745 257.302 102.617C258.039 102.449 258.247 103.115 259.557 104.121C262.844 106.634 265.993 107.601 269.335 108.626C270.464 108.975 284.658 112.173 290.4 107.875C293.408 105.624 294.42 109.62 294.914 109.378C295.64 109.022 297.162 101.126 291.883 93.0817ZM257.639 154.817C259.847 154.367 262.934 155.048 266.319 154.433C269.601 153.834 269.696 152.742 270.833 153.682C271.19 153.979 271.963 155.561 273.088 156.684C273.347 156.943 273.618 157.123 273.814 157.346C274.026 157.588 273.971 157.933 273.704 158.109C272.308 159.021 267.448 160.814 260.302 157.436C259.781 157.189 258.42 156.34 257.486 155.768C257.086 155.526 257.184 154.911 257.639 154.817Z" fill="#1E1735"/>
<path d="M276.053 129.8C275.108 129.944 274.143 129.839 273.218 129.494C272.284 129.169 271.425 128.531 270.794 127.987C270.472 127.686 270.221 127.561 269.978 127.33C269.856 127.22 269.711 127.138 269.582 127.04C269.449 126.942 269.331 126.817 269.178 126.738C268.621 126.335 267.95 126.003 267.217 125.787C266.48 125.58 265.699 125.427 264.887 125.337C264.083 125.216 263.248 125.165 262.409 125.11L259.851 124.942C258.992 124.875 258.118 124.793 257.271 124.55L257.318 124.253C258.989 124.221 260.64 123.865 262.35 123.611C264.06 123.376 265.829 123.196 267.688 123.435C268.613 123.56 269.582 123.72 270.535 124.096C271.006 124.284 271.464 124.55 271.884 124.852C272.276 125.181 272.704 125.572 272.951 125.901C273.484 126.586 273.853 127.138 274.359 127.721C274.865 128.289 275.477 128.848 276.143 129.518L276.053 129.8Z" fill="#1E1735"/>
<path d="M271.586 131.91C270.472 131.463 269.55 131.452 268.57 131.522C267.593 131.589 266.53 131.745 265.366 131.706C264.213 131.679 262.954 131.416 261.887 130.786C260.824 130.164 260 129.232 259.545 128.152C260.663 128.567 261.608 128.942 262.557 129.146C263.499 129.361 264.424 129.42 265.44 129.451C266.448 129.49 267.558 129.483 268.746 129.76C269.041 129.823 269.335 129.917 269.625 130.046C269.915 130.148 270.19 130.332 270.449 130.5C270.707 130.673 270.923 130.919 271.127 131.131C271.315 131.381 271.464 131.651 271.586 131.91Z" fill="#1E1735"/>
<path d="M234.833 283.49C237.319 281.122 240.829 281.306 242.967 281.615C256.161 283.505 259.024 283.466 263.126 281.94C265.236 281.153 271.876 278.256 275.524 278.526C283.411 279.11 314.046 292.881 314.352 296.611C314.352 296.611 314.587 299.57 313.34 300.099C312.865 300.299 312.865 300.287 312.834 300.314C312.124 300.858 313.575 302.064 312.469 303.352C312.018 303.88 311.304 304.021 310.12 304.139C307.708 304.381 305.794 303.708 304.076 304.013C302.821 304.237 302.652 304.742 301.174 305.446C301.174 305.446 299.683 306.632 296.424 306.421C295.503 306.362 294.459 306.476 287.702 302.894C280.775 299.222 269.15 297.128 269.197 297.727C269.245 298.326 282.164 301.524 285.352 303.681C285.67 303.896 286.203 304.648 286.094 305.43C285.933 306.562 284.98 306.652 283.791 306.848C280.367 307.411 272.163 305.145 263.628 303.583C260.926 303.09 256.286 302.24 250.297 302.823C244.724 303.368 243.081 303.266 239.508 303.673C230.836 304.648 223.392 294.396 234.833 283.49Z" fill="#EC7D40"/>
<path d="M303.453 303.732C303.708 303.712 303.955 303.579 304.112 303.348C304.382 302.949 304.28 302.401 303.876 302.131C300.762 300.021 298.895 298.936 295.554 297.296C290.141 294.642 282.36 292.016 276.779 290.281C276.316 290.137 275.822 290.395 275.681 290.857C275.536 291.319 275.794 291.812 276.257 291.953C281.775 293.668 289.467 296.259 294.777 298.866C298.036 300.467 299.856 301.524 302.892 303.579C303.064 303.7 303.26 303.747 303.453 303.732Z" fill="#D66730"/>
<path d="M309.904 301.219C310.14 301.199 310.363 301.089 310.52 300.894C310.822 300.514 310.763 299.962 310.383 299.661C307.445 297.312 305.672 296.083 302.468 294.184C297.283 291.108 289.733 287.878 284.309 285.709C283.858 285.529 283.348 285.749 283.168 286.199C282.987 286.649 283.207 287.158 283.658 287.338C289.023 289.483 296.483 292.673 301.57 295.691C304.692 297.543 306.422 298.741 309.285 301.031C309.469 301.172 309.689 301.234 309.904 301.219Z" fill="#D66730"/>
<path d="M247.72 278.632C234.566 277.744 226.102 273.516 212.061 268.439C210.01 267.699 205.143 266.321 200.362 265.73C200.158 264.951 200.095 263.644 200.299 261.44C200.727 256.825 201.993 247.074 201.782 237.468C201.735 233.757 203.582 217.292 205.033 211.291C205.57 209.064 206.123 198.46 203.668 188.744C202.864 185.561 199.781 173.321 188.415 171.477C172.806 168.944 165.942 179.905 163.487 183.859C158.098 192.529 156.863 200.855 155.776 212.928C155.776 212.928 152.246 237.73 161.926 278.135C164.781 290.047 170.021 298.451 172.633 300.15C172.712 300.201 172.79 300.244 172.868 300.295C172.888 300.248 172.908 300.197 172.923 300.15C179.03 304.389 197.569 301.739 225.369 303.857C236.225 304.683 245.469 307.404 244.653 302.972C242.081 288.994 247.446 279.889 251.109 281C251.713 281.184 251.454 281.494 251.741 281.494C252.278 281.494 252.27 281.353 252.278 280.957C252.313 279.493 251.086 278.859 247.72 278.632Z" fill="#282444"/>
<path d="M248.254 278.632C246.199 278.605 244.132 278.538 242.077 278.292C241.045 278.202 240.026 278.029 238.998 277.892C237.982 277.7 236.955 277.54 235.947 277.309C231.879 276.475 227.926 275.199 224.012 273.903C220.113 272.565 216.258 271.175 212.383 269.868C210.532 269.226 208.567 268.732 206.61 268.298C204.649 267.871 202.668 267.535 200.699 267.311L199.605 267.186L199.35 266.133C199.083 265.029 199.099 264.16 199.103 263.28C199.123 262.414 199.193 261.557 199.268 260.751L199.738 255.928C200.036 252.73 200.303 249.54 200.491 246.353C200.57 244.76 200.648 243.167 200.684 241.578C200.711 240.783 200.707 239.988 200.719 239.194L200.711 238V237.389L200.727 236.724C200.805 235.021 200.978 233.428 201.146 231.799C201.315 230.179 201.515 228.57 201.715 226.961C202.115 223.739 202.633 220.537 203.19 217.335C203.488 215.734 203.766 214.133 204.155 212.532C204.245 212.133 204.359 211.73 204.461 211.327L204.535 211.029L204.594 210.778C204.637 210.622 204.664 210.422 204.7 210.238C204.829 209.491 204.915 208.7 204.99 207.913C205.257 204.754 205.331 201.54 205.198 198.342C205.088 195.136 204.751 191.934 204.198 188.748C205.186 191.828 205.861 195.023 206.296 198.248C206.708 201.478 206.955 204.735 206.873 208.023C206.853 208.849 206.822 209.667 206.735 210.52C206.712 210.735 206.696 210.939 206.653 211.178L206.543 211.816C206.473 212.203 206.394 212.583 206.335 212.975C206.076 214.536 205.849 216.126 205.645 217.711C205.237 220.89 204.931 224.092 204.602 227.286C204.449 228.883 204.3 230.484 204.182 232.077C204.064 233.663 203.943 235.287 203.919 236.81L203.915 237.354L203.923 237.957L203.947 239.182C203.947 240 203.962 240.822 203.947 241.636C203.939 243.273 203.876 244.905 203.798 246.533C203.711 248.162 203.606 249.786 203.48 251.411C203.343 253.031 203.182 254.648 203.013 256.261L202.496 261.072C202.409 261.87 202.343 262.622 202.319 263.37C202.296 264.098 202.319 264.861 202.437 265.331L201.088 264.152C203.194 264.446 205.257 264.869 207.292 265.37C209.328 265.887 211.34 266.45 213.348 267.214C217.195 268.701 220.992 270.283 224.788 271.821C228.573 273.375 232.374 274.847 236.268 276.037C240.171 277.227 244.179 278.061 248.254 278.632Z" fill="#1E1735"/>
<path d="M156.31 212.927C156.227 216.725 156.321 220.502 156.51 224.268C156.659 228.033 156.969 231.791 157.282 235.538C157.663 239.284 158.004 243.026 158.518 246.753C158.977 250.483 159.51 254.206 160.122 257.917L161.044 263.483L162.067 269.034L162.31 270.423L162.593 271.805L163.157 274.573C163.538 276.42 163.891 278.272 164.307 280.073C164.75 281.877 165.24 283.674 165.809 285.451C166.37 287.228 166.981 288.994 167.707 290.716C168.401 292.45 169.19 294.149 170.084 295.793C170.303 296.208 170.531 296.615 170.778 297.011C171.013 297.418 171.276 297.801 171.539 298.189C172.076 298.952 172.645 299.704 173.406 300.271L173.382 300.279L173.453 300.138L173.41 300.287L173.406 300.303L173.39 300.295C172.519 299.884 171.806 299.199 171.127 298.518C170.802 298.161 170.472 297.809 170.174 297.429C169.86 297.061 169.566 296.682 169.284 296.294C168.135 294.748 167.142 293.096 166.209 291.413C165.291 289.718 164.491 287.968 163.742 286.195C162.985 284.422 162.381 282.59 161.785 280.758C161.514 279.838 161.228 278.902 160.985 277.982L160.298 275.211L159.612 272.439L159.271 271.054L158.965 269.66L157.796 264.066L156.823 258.433C156.27 254.664 155.737 250.886 155.38 247.093C155.18 245.198 155.074 243.292 154.937 241.394C154.772 239.495 154.756 237.585 154.686 235.682C154.647 234.731 154.658 233.776 154.647 232.825C154.643 231.87 154.619 230.918 154.651 229.967C154.709 228.061 154.745 226.158 154.874 224.256C155.153 220.455 155.494 216.65 156.31 212.927Z" fill="#1E1735"/>
<path d="M538.881 570.876H534.433C533.441 570.876 532.57 570.226 532.303 569.29L470.833 313.686C470.194 311.428 471.927 309.193 474.324 309.193H483.576C485.239 309.193 486.69 310.304 487.09 311.886L541.022 568.194C541.367 569.556 540.312 570.876 538.881 570.876Z" fill="#1E1735"/>
<path d="M45.9396 570.876H50.3872C51.3795 570.876 52.2501 570.226 52.5168 569.29L113.987 313.686C114.626 311.428 112.893 309.193 110.496 309.193H101.244C99.5813 309.193 98.1301 310.304 97.7301 311.886L43.7982 568.194C43.4491 569.556 44.5041 570.876 45.9396 570.876Z" fill="#1E1735"/>
<path d="M555.776 327.533H22.7732C18.0903 327.533 14.2924 323.374 14.2924 318.246C14.2924 313.119 18.0903 308.96 22.7732 308.96H555.776C560.459 308.96 564.257 313.119 564.257 318.246C564.257 323.374 560.463 327.533 555.776 327.533Z" fill="#1E1735"/>
<path d="M230.632 310.112H372.382V303.45H233.809C232.84 303.45 229.459 307.916 229.459 307.916C228.71 308.781 229.353 310.093 230.601 310.112C230.612 310.112 230.62 310.112 230.632 310.112Z" fill="#7764A6"/>
<path d="M314.277 309.345H426.569C431.307 309.345 435.468 306.198 436.755 301.645L463.268 207.577C464.15 204.449 461.793 201.345 458.538 201.345H344.975C340.194 201.345 335.998 204.519 334.703 209.111L308.571 301.826C307.508 305.603 310.352 309.345 314.277 309.345Z" fill="white"/>
<path d="M314.313 310.112H426.981C431.668 310.112 435.782 307 437.049 302.499L463.397 209.005C464.021 206.798 462.358 204.605 460.059 204.605H347.391C342.704 204.605 338.59 207.717 337.323 212.219L310.975 305.713C310.352 307.92 312.014 310.112 314.313 310.112Z" fill="#7764A6"/>
<path d="M179.03 49.5371H142.59C140.986 49.5371 139.684 50.8367 139.684 52.4377V74.0574C139.684 75.6584 140.986 76.958 142.59 76.958H153.125L164.601 84.8496L164.573 76.958H179.03C180.634 76.958 181.936 75.6584 181.936 74.0574V52.4377C181.932 50.8328 180.634 49.5371 179.03 49.5371Z" fill="#7764A6"/>
<path d="M157.957 58.0315H151.858C149.27 58.0315 147.171 60.1257 147.171 62.7093C147.171 64.2946 147.963 65.696 149.171 66.5416V70.0215L151.811 67.3871C151.827 67.3871 151.838 67.391 151.854 67.391H157.953C160.541 67.391 162.64 65.2968 162.64 62.7132C162.64 60.1297 160.545 58.0315 157.957 58.0315Z" fill="white"/>
<path d="M171.613 67.4224C171.135 67.4224 170.747 67.0348 170.747 66.5573V60.5916L169.225 61.6837C168.837 61.9616 168.295 61.8755 168.013 61.488C167.735 61.1004 167.821 60.5563 168.209 60.2784L171.104 58.1998C171.37 58.0119 171.715 57.9845 172.006 58.1333C172.296 58.282 172.476 58.5795 172.476 58.9044V66.5612C172.484 67.0348 172.092 67.4224 171.613 67.4224Z" fill="white"/>
<path d="M115.858 83.4834H83.2068C81.6183 83.4834 80.328 84.7713 80.328 86.3566V107.781C80.328 109.366 81.6183 110.654 83.2068 110.654H93.6433L99.4871 118.78L104.986 110.654H115.854C117.442 110.654 118.733 109.366 118.733 107.781V86.3566C118.736 84.7713 117.446 83.4834 115.858 83.4834Z" fill="#EB9E94"/>
<path d="M93.5296 91.6411C89.2467 91.6411 85.7757 93.9976 85.7757 96.9022C85.7757 98.6637 87.0504 100.222 89.0074 101.177V104.539L91.5568 101.995C92.1882 102.108 92.8471 102.167 93.5296 102.167C97.8124 102.167 101.283 99.8106 101.283 96.9061C101.283 93.9976 97.8124 91.6411 93.5296 91.6411Z" fill="#F6E3D3"/>
<path d="M105.535 89.5742C109.818 89.5742 113.289 91.9307 113.289 94.8353C113.289 96.5968 112.014 98.1548 110.057 99.1099V102.472L107.508 99.928C106.876 100.042 106.217 100.1 105.535 100.1C101.252 100.1 97.7811 97.7437 97.7811 94.8392C97.7811 91.9347 101.252 89.5742 105.535 89.5742Z" fill="white"/>
<path d="M97.785 94.8236C97.785 91.919 101.256 89.5625 105.539 89.5625C107.421 89.5625 109.143 90.0166 110.488 90.7721C109.084 89.8052 107.127 89.2024 104.97 89.2024C100.687 89.2024 97.2163 91.5589 97.2163 94.4634C97.2163 96.0918 98.3066 97.548 100.021 98.5149C98.6361 97.5676 97.785 96.2641 97.785 94.8236Z" fill="#EB9E94"/>
<path d="M162.197 118.311H128.965C126.859 118.311 125.153 120.013 125.153 122.115V143.41C125.153 145.512 126.859 147.215 128.965 147.215H132.02C132.264 147.215 132.487 147.333 132.628 147.528L132.617 154.989C132.922 155.412 133.554 155.404 133.848 154.974L144.249 147.548C144.39 147.34 144.622 147.219 144.869 147.219H162.197C164.303 147.219 166.009 145.516 166.009 143.414V122.119C166.009 120.017 164.303 118.311 162.197 118.311Z" fill="white"/>
<path d="M155.486 137.433C154.956 137.433 154.525 137.002 154.525 136.474V129.874L152.842 131.084C152.411 131.393 151.811 131.295 151.501 130.864C151.191 130.434 151.289 129.835 151.721 129.526L154.925 127.228C155.219 127.016 155.604 126.989 155.925 127.153C156.247 127.318 156.447 127.647 156.447 128.007V136.478C156.447 137.002 156.015 137.433 155.486 137.433Z" fill="#E30613"/>
<path d="M147.689 129.788C147.689 127.893 146.179 126.026 144.312 126.026H143.983C142.61 126.026 141.218 126.852 140.59 128.03C140.523 128.156 140.343 128.156 140.276 128.03C139.649 126.848 138.256 126.026 136.884 126.026H136.554C134.691 126.026 133.177 127.893 133.177 129.788C133.177 134.873 138.743 137.95 140.245 138.686H140.617C142.124 137.95 147.689 134.873 147.689 129.788Z" fill="#E30613"/>
<path d="M512.422 189.543H477.316C475.642 189.543 474.285 188.188 474.285 186.517V165.57C474.285 163.899 475.642 162.544 477.316 162.544H512.422C514.097 162.544 515.454 163.899 515.454 165.57V186.517C515.454 188.188 514.097 189.543 512.422 189.543Z" fill="#FCCC44"/>
<path d="M503.214 175.924L513.25 165.907C513.595 165.563 513.595 165.003 513.25 164.658C512.905 164.314 512.344 164.314 511.999 164.658L501.492 175.145C501.429 175.18 501.37 175.223 501.315 175.278C501.261 175.333 501.221 175.392 501.182 175.454L496.813 179.815C495.742 180.884 493.997 180.884 492.926 179.815L477.74 164.662C477.395 164.318 476.834 164.318 476.489 164.662C476.144 165.007 476.144 165.566 476.489 165.911L486.525 175.928L476.489 185.945C476.144 186.29 476.144 186.849 476.489 187.194C476.661 187.366 476.889 187.452 477.112 187.452C477.34 187.452 477.564 187.366 477.736 187.194L487.773 177.177L491.671 181.068C492.554 181.949 493.707 182.387 494.864 182.387C496.021 182.387 497.178 181.949 498.056 181.068L501.955 177.177L511.991 187.194C512.164 187.366 512.391 187.452 512.615 187.452C512.838 187.452 513.066 187.366 513.238 187.194C513.584 186.849 513.584 186.29 513.238 185.945L503.214 175.924Z" fill="white"/>
</svg>
