<svg width="54" height="55" viewBox="0 0 54 55" fill="none" xmlns="http://www.w3.org/2000/svg">
<path d="M52.993 16.1729H46.2786V54.9998H52.993V16.1729Z" fill="#94C83D"/>
<path d="M5.35335 25.499L4.52867 25.1122C4.17835 24.9492 3.79032 24.8628 3.40108 24.8628H6.10352e-05V18.1484H3.40836C4.48485 18.1484 5.44459 17.5049 5.85452 16.5087L5.86426 16.4831C6.28026 15.4869 6.0552 14.352 5.2901 13.5894L2.88533 11.1846L7.63285 6.43702L10.0389 8.84181C10.5388 9.34418 11.2042 9.6203 11.9133 9.6203C12.2636 9.6203 12.6067 9.55218 12.9314 9.41594L12.9582 9.405C13.9556 8.99507 14.5991 8.03292 14.5966 6.95277V3.55176H21.3111V6.95398C21.3111 7.33958 21.3974 7.73004 21.5604 8.08035L21.9461 8.90506C21.9461 8.90506 22.4277 9.6057 24.0358 9.77356L24.8934 9.4646C25.2583 9.33323 25.5964 9.11793 25.8713 8.84303L28.2761 6.43824L33.0236 11.1858L30.6189 13.5906C30.344 13.8643 30.1287 14.2024 29.9973 14.5685L29.6871 15.4261C29.6871 15.4261 29.602 16.7483 30.5544 17.5158L31.3791 17.9014C31.7294 18.0644 32.1175 18.1508 32.5055 18.1508H35.9065V24.8652H32.5031C32.1175 24.8652 31.7282 24.9516 31.3791 25.1146L30.5532 25.5002C29.5631 25.9551 29.6859 27.5887 29.6859 27.5887L29.9961 28.4463C30.1274 28.8112 30.3428 29.1493 30.6177 29.4242L33.0225 31.829L28.2749 36.5766L25.8701 34.1718C25.5964 33.8969 25.2583 33.6816 24.8934 33.5502L24.0358 33.2412C22.6102 33.2631 21.9461 34.1085 21.9461 34.1085L21.5604 34.9332C21.3962 35.2836 21.3099 35.6728 21.3111 36.0596V39.4606H14.5966V36.0596C14.5966 35.6728 14.5103 35.2836 14.3473 34.9332L13.9617 34.1085C12.9059 33.2692 11.872 33.2412 11.872 33.2412L11.0144 33.5502C10.6495 33.6816 10.3113 33.8969 10.0364 34.1718L7.63164 36.5766L2.88412 31.829L5.28891 29.4242C5.56381 29.1506 5.77909 28.8124 5.91046 28.4463L6.22065 27.5887C6.22186 27.5875 6.25469 26.2008 5.35335 25.499Z" fill="#FD3984"/>
<path d="M10.0207 53.6182V52.5478H11.9669V47.2443C11.9669 46.9488 12.2065 46.7091 12.5021 46.7091H19.7517V41.4057C19.7517 41.1101 19.9913 40.8705 20.2869 40.8705H27.5366V32.531L27.3955 32.4008C27.1036 32.1308 26.7228 31.9824 26.3238 31.9824C26.1146 31.9824 25.9115 32.0225 25.7181 32.104L25.6901 32.115C25.0965 32.3594 24.7121 32.9336 24.7134 33.5795V37.5145C24.7134 37.8101 24.4737 38.0497 24.1781 38.0497H16.3933C16.0977 38.0497 15.8581 37.8101 15.8581 37.5145V33.5783C15.8605 32.9348 15.4761 32.3607 14.8801 32.115L14.8546 32.104C14.6612 32.0237 14.4556 31.9824 14.2451 31.9824C13.8218 31.9824 13.4241 32.1478 13.1249 32.447L10.3418 35.2301C10.2408 35.3311 10.1058 35.387 9.96348 35.387C9.81995 35.387 9.68614 35.3311 9.58518 35.2301L4.08104 29.726C3.98008 29.625 3.92412 29.49 3.92412 29.3477C3.92412 29.2054 3.98008 29.0704 4.08104 28.9694L6.86414 26.1863C7.32029 25.7314 7.45528 25.0539 7.20592 24.4578L7.19378 24.4286C6.94928 23.8375 6.37758 23.4543 5.73533 23.4543H1.79547C1.49988 23.4543 1.26025 23.2147 1.26025 22.9191V15.1342C1.26025 14.8387 1.49988 14.599 1.79547 14.599H5.73168C6.37758 14.599 6.9505 14.2147 7.19499 13.6211L7.2023 13.6028C7.45531 13.0092 7.32272 12.3268 6.86292 11.867L4.07982 9.08395C3.97886 8.98299 3.9229 8.84797 3.9229 8.70566C3.9229 8.56334 3.97886 8.42832 4.07982 8.32736L9.58639 2.81958C9.68735 2.71862 9.82238 2.66266 9.9647 2.66266C10.107 2.66266 10.242 2.71862 10.343 2.81958L13.1261 5.60266C13.4241 5.90189 13.8218 6.06732 14.2451 6.06732C14.4556 6.06732 14.6599 6.02596 14.8546 5.94568L14.8801 5.93474C15.4761 5.69024 15.8605 5.11489 15.8581 4.47021V0.535209C15.8581 0.239628 16.0977 0 16.3933 0H24.1781C24.3217 0 24.4555 0.0559538 24.5564 0.156914C24.6574 0.257873 24.7134 0.392892 24.7134 0.535209V4.47143C24.7121 5.11489 25.0953 5.68903 25.6913 5.93474L25.7169 5.94568C25.9103 6.02718 26.1158 6.06732 26.3263 6.06732C26.7496 6.06732 27.1473 5.90189 27.4466 5.60266L30.2296 2.81958C30.3306 2.71862 30.4656 2.66266 30.6079 2.66266C30.7503 2.66266 30.8853 2.71862 30.9862 2.81958L36.4904 8.32371C36.6996 8.53293 36.6996 8.8723 36.4904 9.0803L33.7073 11.8646C33.2511 12.3195 33.1161 12.9983 33.3655 13.5931L33.3777 13.6211C33.6221 14.2134 34.1951 14.5966 34.8361 14.5966H38.7759C38.9195 14.5966 39.0533 14.6526 39.1543 14.7535C39.2552 14.8545 39.3112 14.9895 39.3112 15.1318V20.4352H43.1063V13.1856C43.1063 12.89 43.3459 12.6504 43.6415 12.6504H51.4263C51.5699 12.6504 51.7037 12.7063 51.8046 12.8073C51.9056 12.9083 51.9616 13.0433 51.9616 13.1856V52.5478H53.9078V53.6182H10.0207ZM44.1767 52.5478H50.8911V13.7208H44.1767V52.5478ZM36.3919 52.5478H43.1063V21.5057H39.3112V22.9167C39.3112 23.2122 39.0715 23.4519 38.7759 23.4519H36.3919V52.5478ZM28.607 52.5478H35.3214V30.8949L30.9862 35.2301C30.8853 35.3311 30.7503 35.387 30.6079 35.387C30.4656 35.387 30.3306 35.3311 30.2296 35.2301L28.607 33.6075V52.5478ZM20.8221 52.5478H27.5366V41.9409H20.8221V52.5478ZM13.0373 52.5478H19.7517V47.7795H13.0373V52.5478ZM16.6804 32.4507C16.8446 32.801 16.9297 33.1902 16.9297 33.577V36.9781H23.6441V33.577C23.6441 33.1902 23.7305 32.801 23.8935 32.4507L24.2791 31.626L23.3936 31.8401C22.3779 32.0858 21.3318 32.2111 20.2869 32.2111C19.2408 32.2111 18.1959 32.0858 17.1803 31.8401L16.2948 31.626L16.6804 32.4507ZM31.5433 25.8834C30.451 27.6679 28.9306 29.1896 27.1449 30.2819L26.3676 30.7575L27.2252 31.0664C27.5901 31.1978 27.9282 31.4131 28.2019 31.688L30.6067 34.0928L35.3543 29.3453L32.9495 26.9405C32.6746 26.6656 32.4593 26.3286 32.3279 25.9625L32.0177 25.1049L31.5433 25.8834ZM8.24472 25.9637C8.11335 26.3286 7.89807 26.6668 7.62316 26.9417L5.21837 29.3465L9.96592 34.094L12.3707 31.6892C12.6456 31.4143 12.9837 31.199 13.3487 31.0677L14.2062 30.7587L13.429 30.2831C11.6445 29.1908 10.1228 27.6703 9.0305 25.8846L8.5549 25.1074L8.24472 25.9637ZM8.17903 19.4621C8.41014 25.9406 13.7525 31.1394 20.2869 31.1394C26.9673 31.1394 32.4021 25.7046 32.4021 19.0242C32.4021 12.4898 27.2033 7.14747 20.7248 6.91636V5.84594C21.6262 5.87635 22.5202 5.99799 23.3936 6.20964L24.2791 6.42372L23.8935 5.5978C23.7305 5.24748 23.6441 4.85824 23.6441 4.47143V1.07042H16.9297V4.47143C16.9321 5.55157 16.2887 6.51373 15.2913 6.92365L15.2645 6.9346C14.9397 7.07084 14.5967 7.13896 14.2464 7.13896C13.5372 7.13896 12.8719 6.86284 12.3719 6.36047L9.96592 3.95446L5.21837 8.70201L7.62316 11.1068C8.38827 11.8695 8.61451 13.0044 8.19851 14.0006L8.18755 14.0261C7.77885 15.0223 6.81914 15.6658 5.74264 15.6658H2.33432V22.3802H5.73533C6.12336 22.3802 6.5126 22.4666 6.86171 22.6296L7.68764 23.0152L7.47233 22.1297C7.26068 21.2551 7.13905 20.3598 7.10864 19.4609H8.17903V19.4621ZM34.8361 23.4519C34.1938 23.4519 33.6209 23.8363 33.3764 24.4298L33.3691 24.4469C33.1161 25.0405 33.2487 25.7241 33.7073 26.1839L35.3202 27.798V23.4531H34.8361V23.4519ZM33.1015 15.9176C33.5942 17.9502 33.5942 20.0995 33.1015 22.1321L32.8874 23.0176L33.7134 22.632C34.0625 22.469 34.4517 22.3827 34.8373 22.3827H38.2407V15.6682H34.8397C34.4517 15.6682 34.0625 15.5819 33.7134 15.4189L32.8887 15.0333L33.1015 15.9176ZM28.2031 6.36047C27.9282 6.63537 27.5901 6.85067 27.2252 6.98204L26.3676 7.291L27.1449 7.76661C28.9293 8.85892 30.451 10.3794 31.5433 12.1651L32.019 12.9423L32.3291 12.0848C32.4605 11.7199 32.6758 11.3817 32.9507 11.1068L35.3555 8.70201L30.6079 3.95446L28.2031 6.36047Z" fill="#363F32"/>
</svg>
