<svg width="56" height="55" viewBox="0 0 56 55" fill="none" xmlns="http://www.w3.org/2000/svg">
<path d="M45.6752 50.1776C45.6752 52.8365 47.8386 54.9998 50.4974 54.9998C53.1563 54.9998 55.3197 52.8365 55.3197 50.1776V47.125H45.6752V50.1776Z" fill="#94C83D"/>
<path d="M12.4505 9.96289C11.7426 9.96289 11.1675 10.538 11.1675 11.2459C11.1675 11.9537 11.7426 12.5288 12.4505 12.5288H21.2986C22.0064 12.5288 22.5816 11.9537 22.5816 11.2459C22.5816 10.538 22.0064 9.96289 21.2986 9.96289H12.4505Z" fill="#FD3984"/>
<path d="M41.1627 18.8115H29.7486V26.6864H41.1627V18.8115Z" fill="#FD3984"/>
<path d="M48.2677 54.0621C45.0724 54.0621 42.4721 51.4618 42.4721 48.2666V43.4443H30.1633L30.2097 43.8845C30.369 45.4009 31.1676 46.7922 32.4008 47.7025L32.5058 47.7799H36.7651C38.0094 47.7799 39.0214 48.7919 39.0214 50.0362V51.8058C39.0214 53.0501 38.0094 54.0621 36.7651 54.0621H10.2207C8.97644 54.0621 7.96443 53.0501 7.96443 51.8058V50.0362C7.96443 48.7919 8.97644 47.7799 10.2207 47.7799H14.48L14.585 47.7025C15.8183 46.7922 16.6168 45.4009 16.7761 43.8845L16.8225 43.4443H4.0259C1.80613 43.4443 0 41.6382 0 39.4184V12.874C0 10.6543 1.80613 8.84813 4.0259 8.84813H8.00867L8.10268 8.5838C8.42342 7.6835 9.27395 7.07851 10.2196 7.07851H10.6178V4.0259C10.6178 1.80613 12.4239 0 14.6437 0C16.8634 0 18.6696 1.80613 18.6696 4.0259V7.07851H19.0677C20.0123 7.07851 20.8628 7.6835 21.1846 8.5838L21.2787 8.84813H42.9577C45.1775 8.84813 46.9836 10.6543 46.9836 12.874V18.09L47.5344 17.8622C47.8087 17.7483 48.0409 17.6963 48.2666 17.6963C48.9977 17.6963 49.6546 18.1022 49.9831 18.7569L54.0621 26.916V48.2666C54.0632 51.4618 51.4641 54.0621 48.2677 54.0621ZM43.4454 48.2666C43.4454 50.9254 45.6088 53.0888 48.2677 53.0888C50.9265 53.0888 53.0899 50.9254 53.0899 48.2666V45.214H43.4454V48.2666ZM10.2207 48.7532C9.51285 48.7532 8.93773 49.3283 8.93773 50.0362V51.8058C8.93773 52.5137 9.51285 53.0888 10.2207 53.0888H36.7651C37.473 53.0888 38.0481 52.5137 38.0481 51.8058V50.0362C38.0481 49.3283 37.473 48.7532 36.7651 48.7532H10.2207ZM17.7549 43.8115C17.6609 45.0248 17.2306 46.1773 16.5117 47.144L16.0395 47.7799H30.9486L30.4752 47.144C29.7563 46.1773 29.326 45.0248 29.2309 43.8115L29.2022 43.4443H17.7825L17.7549 43.8115ZM43.4454 44.2407H53.0899V41.6747H43.4454V44.2407ZM4.02701 9.82143C2.34365 9.82143 0.974407 11.1907 0.974407 12.874V39.4184C0.974407 41.1018 2.34365 42.471 4.02701 42.471H42.4721V36.3658H4.91182C4.15531 36.3658 3.54036 35.7509 3.54036 34.9944V13.7588C3.54036 13.0023 4.15531 12.3874 4.91182 12.3874H10.2207V11.5911C9.27617 11.5911 8.42564 10.9861 8.10379 10.0858L8.00978 9.82143H4.02701ZM48.7543 40.7014H53.0899V27.5177H48.7543V40.7014ZM43.4454 40.7014H47.781V27.5177H43.4454V40.7014ZM4.51366 35.3925H42.4721V13.3607H18.6707V23.6068L16.3171 28.314H25.2625C26.5068 28.314 27.5188 29.326 27.5188 30.5703C27.5188 31.8146 26.5068 32.8266 25.2625 32.8266H9.33589C8.09162 32.8266 7.07961 31.8146 7.07961 30.5703C7.07961 29.326 8.09162 28.314 9.33589 28.314H12.9725L10.6189 23.6068V13.3607H4.51366V35.3925ZM9.33589 29.2873C8.62804 29.2873 8.05291 29.8624 8.05291 30.5703C8.05291 31.2782 8.62804 31.8533 9.33589 31.8533H25.2625C25.9704 31.8533 26.5455 31.2782 26.5455 30.5703C26.5455 29.8624 25.9704 29.2873 25.2625 29.2873H9.33589ZM11.5922 23.3768L13.7998 27.7909C13.9535 28.0995 14.2776 28.2908 14.6448 28.2908C15.012 28.2908 15.336 28.0984 15.4898 27.7898L17.3965 23.9773H14.1581V23.0051H17.6974V20.4392H15.9277V19.4659H17.6974V16.8999H14.1581V15.9266H17.6974V11.5911H11.5922V23.3768ZM48.2677 18.6917C47.9005 18.6917 47.5764 18.883 47.4227 19.1927L43.7463 26.5444H52.7891L49.1127 19.1927C48.9589 18.8841 48.6349 18.6917 48.2677 18.6917ZM21.1858 10.0858C20.865 10.9861 20.0145 11.5911 19.0688 11.5911V12.3874H42.074C42.8305 12.3874 43.4454 13.0023 43.4454 13.7588V23.2828L44.1997 23.4608L46.0114 19.8375V12.874C46.0114 11.1907 44.6422 9.82143 42.9588 9.82143H21.2798L21.1858 10.0858ZM10.2207 8.0518C9.51285 8.0518 8.93773 8.62693 8.93773 9.33478C8.93773 10.0426 9.51285 10.6178 10.2207 10.6178H19.0688C19.7767 10.6178 20.3518 10.0426 20.3518 9.33478C20.3518 8.62693 19.7767 8.0518 19.0688 8.0518H10.2207ZM14.6448 0.973295C12.9614 0.973295 11.5922 2.34254 11.5922 4.0259V7.07851H17.6974V4.0259C17.6974 2.34254 16.3281 0.973295 14.6448 0.973295ZM12.3885 39.9051V38.9318H13.3618V39.9051H12.3885ZM8.84924 39.9051V38.9318H9.82254V39.9051H8.84924ZM5.30999 39.9051V38.9318H6.28329V39.9051H5.30999ZM38.9329 32.8266V31.8533H39.9062V32.8266H38.9329ZM30.0848 32.8266V31.8533H36.3669V32.8266H30.0848ZM30.0848 29.2873V28.314H39.9062V29.2873H30.0848ZM26.5455 25.7481V15.9266H39.9062V25.7481H26.5455ZM27.5188 24.7748H38.9329V16.8999H27.5188V24.7748ZM29.826 21.9931L32.1386 20.8374L29.8249 19.6816L30.2606 18.8111L33.2259 20.2932L36.1911 18.8111L36.6269 19.6816L34.3142 20.8374L36.628 21.9931L36.1922 22.8636L33.2259 21.3815L30.2606 22.8647L29.826 21.9931Z" fill="#363F32"/>
</svg>
