<svg width="43" height="55" viewBox="0 0 43 55" fill="none" xmlns="http://www.w3.org/2000/svg">
<path d="M6.03711 41.9017V29.998H12.6015V41.9958C12.5957 45.325 15.1283 48.1096 18.4424 48.4196V55.0003C15.2653 54.8784 12.2508 53.5627 9.99918 51.3169C7.47701 48.8319 6.05104 45.4434 6.03711 41.9017Z" fill="#FD3984"/>
<path d="M33.4941 6.43772C33.4941 4.22908 35.2836 2.43964 37.4922 2.43848C39.7009 2.43848 41.4903 4.22792 41.4914 6.43656C41.4926 8.6452 39.702 10.4346 37.4934 10.4358H37.4922C35.2847 10.4335 33.4965 8.6452 33.4941 6.43772Z" fill="#FD3984"/>
<path d="M4.25 6.43772C4.25 4.22908 6.03946 2.43964 8.2481 2.43848C10.4567 2.43848 12.2462 4.22792 12.2473 6.43656C12.2485 8.6452 10.4579 10.4346 8.24926 10.4358C6.04178 10.4335 4.25348 8.6452 4.25 6.43772Z" fill="#94C83D"/>
<path d="M34.6995 31.6963C34.4429 31.6963 34.235 31.9041 34.235 32.1608V35.5213C34.235 35.778 34.4429 35.9858 34.6995 35.9858C34.9562 35.9858 35.164 35.778 35.164 35.5213V32.1608C35.164 31.9041 34.9562 31.6963 34.6995 31.6963Z" fill="#363F32"/>
<path d="M33.9355 22.6797H27.9715C27.2933 22.6797 26.7429 23.2301 26.7418 23.9083V40.4649C26.7383 43.4377 24.3264 45.8449 21.3537 45.8414C21.2887 45.8414 21.2225 45.8402 21.1575 45.8379C18.244 45.6626 15.9749 43.2403 15.9889 40.3221V23.9094C15.9877 23.2313 15.4384 22.6808 14.7591 22.6808H8.79511C8.11696 22.682 7.56653 23.2313 7.56653 23.9094V40.2292C7.58046 44.0194 9.10747 47.6482 11.8073 50.3086C14.3469 52.8401 17.7853 54.2626 21.3711 54.2672H21.6057C29.1188 54.1023 35.1327 47.9815 35.1641 40.4661V37.2147C35.1641 36.9581 34.9562 36.7502 34.6996 36.7502C34.443 36.7502 34.2351 36.9581 34.2351 37.2147V40.4661C34.2037 47.38 28.7379 53.0444 21.8298 53.3231V46.7506C25.1207 46.5056 27.6684 43.7663 27.6707 40.4649V28.3255H34.2351V30.2683C34.2351 30.5249 34.443 30.7328 34.6996 30.7328C34.9562 30.7328 35.1641 30.5249 35.1641 30.2683V23.9094C35.1641 23.2313 34.6137 22.6808 33.9355 22.6797ZM8.79511 23.6087H14.7591C14.9252 23.6087 15.0599 23.7434 15.0599 23.9083V27.3954H8.4955V23.9083C8.4955 23.7434 8.63022 23.6098 8.79511 23.6087ZM8.4955 40.2292V28.3255H15.0599V40.3233C15.0541 43.6525 17.5867 46.4371 20.9008 46.7471V53.3278C17.7237 53.2058 14.7092 51.8902 12.4576 49.6444C9.93543 47.1594 8.50944 43.7709 8.4955 40.2292ZM27.6707 27.3966V23.9094C27.6707 23.7434 27.8054 23.6098 27.9715 23.6098H33.9355C34.1016 23.6098 34.2351 23.7445 34.2351 23.9094V27.3966H27.6707Z" fill="#363F32"/>
<path d="M39.4479 8.43507C41.3848 6.5237 41.4057 3.40467 39.4955 1.46659C37.5841 -0.470325 34.4651 -0.491227 32.527 1.41898C30.5889 3.32919 30.5692 6.44939 32.4794 8.38746C32.4945 8.40372 32.5107 8.41882 32.527 8.43507C30.5285 9.35708 29.2465 11.3555 29.243 13.5561V15.3838C29.243 16.1537 29.8666 16.7773 30.6365 16.7773H41.3383C42.1082 16.7773 42.7318 16.1537 42.7318 15.3838V13.5584C42.7295 11.3567 41.4475 9.35708 39.4479 8.43507ZM31.9893 4.93283C31.9893 2.72419 33.7788 0.934752 35.9874 0.93359C38.1961 0.93359 39.9855 2.72303 39.9867 4.93167C39.9867 7.14031 38.1972 8.92975 35.9886 8.93091H35.9874C33.7799 8.92859 31.9917 7.14031 31.9893 4.93283ZM41.8028 15.3838C41.8028 15.6404 41.595 15.8483 41.3383 15.8483H30.6353C30.3787 15.8483 30.1709 15.6404 30.1709 15.3838V13.5584C30.1743 11.5437 31.4563 9.7519 33.363 9.09929C34.9644 10.1188 37.0105 10.1188 38.6118 9.09929C40.5173 9.75306 41.7993 11.5437 41.804 13.5584L41.8028 15.3838Z" fill="#363F32"/>
<path d="M16.0143 16.7769H26.7173C27.4872 16.7769 28.1107 16.1534 28.1107 15.3835V13.558C28.1084 11.3564 26.8264 9.35675 24.8268 8.43474C26.7637 6.52337 26.7846 3.40433 24.8733 1.46742C22.9619 -0.469497 19.8429 -0.490399 17.9059 1.42097C15.969 3.33234 15.9481 6.45138 17.8595 8.38829C17.8746 8.40339 17.8908 8.41964 17.9059 8.43474C15.9063 9.35559 14.6255 11.354 14.622 13.5557V15.3835C14.6208 16.1534 15.2444 16.7769 16.0143 16.7769ZM17.3683 4.9325C17.3683 2.72502 19.1577 0.934417 21.3664 0.934417C23.5739 0.934417 25.3645 2.72386 25.3645 4.9325C25.3645 7.14114 23.575 8.93058 21.3664 8.93058C19.1589 8.92826 17.3706 7.13998 17.3683 4.9325ZM15.5498 13.5557C15.5545 11.541 16.8353 9.7504 18.742 9.09663C20.3433 10.1162 22.3894 10.1162 23.9907 9.09663C25.8963 9.7504 27.1783 11.541 27.1829 13.5557V15.3835C27.1829 15.6401 26.9751 15.848 26.7184 15.848H16.0143C15.7577 15.848 15.5498 15.6401 15.5498 15.3835V13.5557Z" fill="#363F32"/>
<path d="M13.4887 15.3851V13.5596C13.4852 11.358 12.2032 9.35949 10.2048 8.43865C12.1417 6.52728 12.1626 3.40824 10.2513 1.47132C8.33989 -0.465592 5.22085 -0.486493 3.28393 1.42488C1.34702 3.33624 1.3261 6.45528 3.23747 8.3922C3.25256 8.40729 3.26884 8.42355 3.28393 8.43865C1.28547 9.35949 0.00348366 11.3568 0 13.5573V15.3851C0 16.155 0.623575 16.7785 1.39346 16.7785H12.0964C12.8651 16.7785 13.4887 16.155 13.4887 15.3851ZM2.74511 4.93408C2.74511 2.72544 4.53454 0.936002 6.74319 0.934841C8.95183 0.934841 10.7413 2.72428 10.7424 4.93292C10.7436 7.14156 8.95299 8.931 6.74435 8.93216C4.53687 8.92984 2.7486 7.14156 2.74511 4.93408ZM0.927814 15.3851V13.5596C0.932459 11.5449 2.21328 9.75431 4.12001 9.10054C5.72133 10.1201 7.76739 10.1201 9.36872 9.10054C11.2754 9.75315 12.5574 11.5449 12.5609 13.5596V15.3851C12.5609 15.6417 12.3531 15.8496 12.0964 15.8496H1.3923C1.13567 15.8496 0.927814 15.6417 0.927814 15.3851Z" fill="#363F32"/>
<path d="M33.4419 20.9081V18.7018C33.4419 18.4452 33.2341 18.2373 32.9774 18.2373C32.7208 18.2373 32.5129 18.4452 32.5129 18.7018V20.9081C32.5129 21.1647 32.7208 21.3726 32.9774 21.3726C33.2341 21.3726 33.4419 21.1647 33.4419 20.9081Z" fill="#363F32"/>
<path d="M27.8681 18.7018V20.9081C27.8681 21.1647 28.076 21.3726 28.3326 21.3726C28.5892 21.3726 28.7971 21.1647 28.7971 20.9081V18.7018C28.7971 18.4452 28.5892 18.2373 28.3326 18.2373C28.076 18.2373 27.8681 18.4452 27.8681 18.7018Z" fill="#363F32"/>
<path d="M23.2233 18.7018V20.9081C23.2233 21.1647 23.4311 21.3726 23.6878 21.3726C23.9444 21.3726 24.1522 21.1647 24.1522 20.9081V18.7018C24.1522 18.4452 23.9444 18.2373 23.6878 18.2373C23.4311 18.2373 23.2233 18.4452 23.2233 18.7018Z" fill="#363F32"/>
<path d="M18.5783 18.7018V20.9081C18.5783 21.1647 18.7862 21.3726 19.0428 21.3726C19.2994 21.3726 19.5073 21.1647 19.5073 20.9081V18.7018C19.5073 18.4452 19.2994 18.2373 19.0428 18.2373C18.7862 18.2373 18.5783 18.4452 18.5783 18.7018Z" fill="#363F32"/>
<path d="M14.398 21.3726C14.6546 21.3726 14.8624 21.1647 14.8624 20.9081V18.7018C14.8624 18.4452 14.6546 18.2373 14.398 18.2373C14.1413 18.2373 13.9335 18.4452 13.9335 18.7018V20.9081C13.9335 21.1647 14.1413 21.3726 14.398 21.3726Z" fill="#363F32"/>
<path d="M9.28864 18.7018V20.9081C9.28864 21.1647 9.49649 21.3726 9.75312 21.3726C10.0098 21.3726 10.2176 21.1647 10.2176 20.9081V18.7018C10.2176 18.4452 10.0098 18.2373 9.75312 18.2373C9.49649 18.2373 9.28864 18.4452 9.28864 18.7018Z" fill="#363F32"/>
</svg>
