<svg width="57" height="55" viewBox="0 0 57 55" fill="none" xmlns="http://www.w3.org/2000/svg">
<path d="M6.10352e-05 43.8972C6.10352e-05 45.1547 1.02258 46.1773 2.28009 46.1773H50.6726C51.9301 46.1773 52.9527 45.1547 52.9527 43.8972V41.6172H6.10352e-05V43.8972Z" fill="#FD3984"/>
<path d="M35.2441 5.89355C35.1371 5.89355 35.03 5.90519 34.9254 5.92845C34.545 6.01337 34.2204 6.24021 34.011 6.56942C33.8016 6.89747 33.733 7.28833 33.8179 7.66989L38.9678 30.725C39.0527 31.1054 39.2912 31.4416 39.6227 31.6475C39.8553 31.7917 40.1217 31.8673 40.3951 31.8673C40.5114 31.8673 40.6266 31.8534 40.7394 31.8266L40.6406 31.0007L40.7429 31.8254C41.513 31.6289 41.983 30.8669 41.812 30.091L36.6679 7.03473C36.5202 6.37399 35.9211 5.89355 35.2441 5.89355Z" fill="#94C83D"/>
<path d="M18.8358 55V53.9763H20.8285L23.3133 45.6937H4.45766C2.63596 45.6937 1.15393 44.2117 1.15393 42.39V10.7487C1.15393 8.92703 2.63596 7.44501 4.45766 7.44501H6.73769V3.30372C6.73769 1.48202 8.21971 0 10.0414 0H47.2664C49.0882 0 50.5702 1.48202 50.5702 3.30372V7.44501H52.8502C54.6719 7.44501 56.1539 8.92703 56.1539 10.7487V42.39C56.1539 44.2117 54.6719 45.6937 52.8502 45.6937H33.9946L36.4793 53.9763H38.472V55H18.8358ZM21.8964 53.9763H35.4103L32.9255 45.6937H24.3812L21.8964 53.9763ZM2.17762 42.39C2.17762 43.6475 3.20015 44.6701 4.45766 44.6701H52.8502C54.1077 44.6701 55.1302 43.6475 55.1302 42.39V40.11H2.17762V42.39ZM4.45766 8.4687C3.20015 8.4687 2.17762 9.49122 2.17762 10.7487V39.0863H55.1302V10.7487C55.1302 9.49122 54.1077 8.4687 52.8502 8.4687H50.5702V36.3875H49.5465V3.30372C49.5465 2.04621 48.524 1.02369 47.2664 1.02369H10.0414C8.7839 1.02369 7.76137 2.04621 7.76137 3.30372V36.3875H6.73769V8.4687H4.45766Z" fill="#363F32"/>
<path d="M11.484 3.72266H10.4603V4.74635H11.484V3.72266Z" fill="#363F32"/>
<path d="M15.2066 3.72266H14.183V4.74635H15.2066V3.72266Z" fill="#363F32"/>
<path d="M18.9289 3.72266H17.9052V4.74635H18.9289V3.72266Z" fill="#363F32"/>
<path d="M45.2528 15.1698L41.2586 16.0615L41.4817 17.0606L45.4759 16.1689L45.2528 15.1698Z" fill="#363F32"/>
<path d="M41.0301 5.09509L38.8306 7.29492L39.5546 8.01877L41.7541 5.81894L41.0301 5.09509Z" fill="#363F32"/>
<path d="M43.2148 24.4418L42.757 25.3574L45.7306 26.8442L46.1884 25.9286L43.2148 24.4418Z" fill="#363F32"/>
<path d="M17.7691 35.4787C17.5317 35.4787 17.3223 35.3112 17.27 35.0797L15.617 27.6766L15.3192 27.644C12.6576 27.3532 10.6242 25.2023 10.4811 22.5279C10.3392 19.8547 12.1353 17.5002 14.7503 16.929L19.4768 15.8739L31.4946 8.29279L31.1433 6.7212C30.8443 5.38459 31.6889 4.05379 33.0267 3.75483C33.2058 3.71528 33.3884 3.69434 33.5711 3.69434C34.7227 3.69434 35.7406 4.51212 35.993 5.63818L41.1406 28.6933C41.3046 29.4331 41.1266 30.1974 40.652 30.7895C40.1774 31.3805 39.4701 31.7201 38.7128 31.7201C37.5437 31.7166 36.5491 30.9175 36.2932 29.7763L35.95 28.2442L21.8498 26.4947L20.5109 26.7936L22.1186 33.9955C22.1488 34.1293 22.1244 34.2666 22.0511 34.3817C21.9778 34.4969 21.8638 34.5772 21.73 34.6074L17.8807 35.4671C17.8447 35.4752 17.8063 35.4787 17.7691 35.4787ZM17.0676 27.5626L16.657 27.6533L18.1529 34.355L21.0041 33.7175L19.5035 27.0193L17.0676 27.5626ZM33.5688 4.72035C33.4617 4.72035 33.3547 4.73198 33.25 4.75525C32.8696 4.84017 32.5451 5.06701 32.3357 5.39622C32.1263 5.72426 32.0577 6.11513 32.1426 6.49668L37.2924 29.5518C37.3773 29.9322 37.6158 30.2684 37.9473 30.4743C38.18 30.6185 38.4464 30.6941 38.7198 30.6941C38.8361 30.6941 38.9513 30.6802 39.0641 30.6534L38.9652 29.8275L39.0676 30.6522C39.8377 30.4557 40.3077 29.6937 40.1367 28.9178L34.9926 5.86153C34.8449 5.20079 34.2458 4.72035 33.5688 4.72035ZM20.2515 16.5951L22.2407 25.5129L35.7104 27.1822L31.7284 9.35371L20.2515 16.5951ZM11.7165 23.5306C12.2795 25.3616 14.0047 26.6587 15.9392 26.6587C16.2614 26.6587 16.586 26.6226 16.9024 26.5528L21.2112 25.5896L19.286 16.9662L14.9737 17.9283C12.5983 18.461 11.0953 20.8272 11.6258 23.2037L11.699 23.5318H11.7165V23.5306Z" fill="#363F32"/>
</svg>
