<svg width="55" height="55" viewBox="0 0 55 55" fill="none" xmlns="http://www.w3.org/2000/svg">
<path d="M25.5806 15.1193C25.4957 16.8049 26.7939 18.2602 28.4795 18.3672L28.4958 18.3684H28.5121C29.4124 18.3556 30.257 17.9066 30.7735 17.169C31.2004 16.5862 31.4354 15.858 31.4308 15.1275C31.4319 14.9576 31.4168 14.7808 31.3865 14.6075C31.297 13.0906 30.043 11.9005 28.5202 11.8936H28.5062C26.9917 11.8936 25.7318 13.072 25.6283 14.5807C25.5969 14.7587 25.5806 14.9402 25.5806 15.1193Z" fill="#94C83D"/>
<path d="M43.2614 51.636C43.3393 51.636 43.4149 51.6534 43.4859 51.6883C43.7127 51.8011 43.9524 51.9023 44.1955 51.9873C44.3816 52.0512 44.5166 52.2164 44.541 52.4095L44.8667 54.9827H47.5074L47.8284 52.4119C47.8529 52.2164 47.9843 52.0547 48.1704 51.9919C48.4159 51.907 48.6555 51.8058 48.8858 51.6906C48.951 51.6592 49.0254 51.6418 49.1034 51.6418C49.2174 51.6418 49.329 51.6802 49.4186 51.7511L51.4683 53.3437L53.3342 51.4778L51.7429 49.4292C51.623 49.2757 51.6009 49.0639 51.687 48.8894C51.7999 48.6626 51.9011 48.423 51.986 48.1798C52.05 47.9937 52.2151 47.8588 52.4083 47.8343L54.9803 47.5086L54.9838 44.8715L52.4106 44.5457C52.214 44.5213 52.0535 44.3899 51.9895 44.2037C51.9046 43.9583 51.8034 43.7187 51.6882 43.4883C51.6056 43.3173 51.63 43.1044 51.7522 42.9521L53.3482 40.8989L51.4811 39.033L49.4326 40.6243C49.343 40.6941 49.2313 40.7325 49.1173 40.7325C49.0394 40.7325 48.9638 40.7151 48.8928 40.6802C48.666 40.5673 48.4263 40.4661 48.1832 40.3812C47.9971 40.3172 47.8621 40.152 47.8389 39.9589L47.5132 37.3857H44.8725L44.5468 39.9578C44.5224 40.1509 44.3886 40.316 44.2048 40.3789C43.9593 40.4649 43.7197 40.565 43.4905 40.679C43.4219 40.7127 43.3463 40.7302 43.2672 40.7302C43.1544 40.7302 43.0427 40.6918 42.9531 40.622L40.9034 39.0306L39.0375 40.8965L40.6288 42.9451C40.7487 43.0986 40.7708 43.3103 40.6847 43.4848C40.5718 43.7117 40.4707 43.9513 40.3857 44.1944C40.3218 44.3806 40.1566 44.5155 39.9635 44.5399L37.3903 44.8656V47.5063L39.9611 47.8274C40.1566 47.8518 40.3183 47.9832 40.3811 48.1694C40.466 48.4148 40.5672 48.6545 40.6824 48.8848C40.7649 49.057 40.7428 49.2629 40.6219 49.4176L39.0293 51.4673L40.8952 53.3332L42.9438 51.7418C43.0369 51.6743 43.1485 51.636 43.2614 51.636Z" fill="#FD3984"/>
<path d="M24.7081 55.0002C23.3994 55.0002 22.335 53.9358 22.335 52.6271V47.0271C22.3676 45.1298 22.278 39.9229 21.4881 38.7143L21.2625 38.3699C18.1833 33.6656 13.0287 25.7914 13.0287 20.0552C13.0381 12.0856 19.5304 5.59329 27.5 5.58398C35.4697 5.59329 41.9619 12.0856 41.9712 20.0552C41.9712 25.7914 36.8167 33.6656 33.7375 38.3699L33.5118 38.7143C32.722 39.9229 32.6324 45.1298 32.665 47.0341V52.6271C32.665 53.9358 31.6006 55.0002 30.2919 55.0002H24.7081ZM23.3587 52.6271C23.3587 53.3716 23.9636 53.9765 24.7081 53.9765H30.2919C31.0364 53.9765 31.6413 53.3716 31.6413 52.6271V51.2777H23.3587V52.6271ZM23.3587 50.254H31.6413V47.5552H23.3587V50.254ZM28.0118 46.5339H31.6343V46.1162C31.639 42.1006 32.0205 39.1237 32.6545 38.1559L32.8802 37.8116C35.7 33.5028 40.9475 25.4843 40.9475 20.0564C40.9475 12.6416 34.9148 6.60884 27.5 6.60884C20.0852 6.60884 14.0524 12.6416 14.0524 20.0564C14.0524 25.4901 19.3 33.5039 22.1198 37.8092L22.3443 38.1536C22.983 39.1319 23.3645 42.1076 23.3645 46.1139V46.5327H26.9881V29.8733H22.1338C21.2718 29.8733 20.4656 29.4941 19.9189 28.8333C19.3907 28.2017 19.1732 27.3769 19.3221 26.5708C19.7165 24.1849 20.7902 21.9944 22.4304 20.2286L22.442 20.2158C22.4572 20.1983 22.4723 20.1797 22.4886 20.1634C23.2598 19.3805 24.1695 18.7814 25.1944 18.3813L25.8947 18.1079L25.2933 17.6565C24.1905 16.8283 23.539 15.5103 23.5506 14.1306C23.5506 13.8794 23.5716 13.6316 23.6158 13.3908L23.6181 13.3757L23.6193 13.3605C23.8298 11.3702 25.4992 9.86952 27.5 9.86952C29.5171 9.87533 31.1818 11.3853 31.3819 13.3826L31.383 13.3978L31.3854 13.4129C31.4261 13.6467 31.447 13.8863 31.4458 14.1248C31.4517 15.0764 31.1446 16.0175 30.5827 16.7806C30.3361 17.1144 30.0418 17.4076 29.7067 17.6519L29.089 18.1021L29.8021 18.3801C30.827 18.7803 31.7378 19.3794 32.5091 20.1634C32.5172 20.1727 32.5323 20.1878 32.5451 20.2041L32.5556 20.2169L32.5672 20.2297C34.2017 21.9874 35.2742 24.1674 35.6686 26.5359C35.8268 27.3606 35.6116 28.1947 35.0788 28.8333C34.5309 29.4953 33.7247 29.8745 32.8662 29.8745H28.0083V46.5339H28.0118ZM20.3365 26.729C20.2306 27.2478 20.3656 27.7759 20.7076 28.1807C21.0589 28.6042 21.5789 28.8496 22.1326 28.8496H32.8662C33.4223 28.8496 33.9411 28.6065 34.2936 28.1831C34.6274 27.7934 34.767 27.2746 34.6716 26.7639C34.3238 24.5955 33.349 22.59 31.8542 20.9684V20.9672L31.7413 20.8416C30.6478 19.6725 29.1018 19.0013 27.5012 19.0013C25.9005 19.0013 24.3545 19.6725 23.261 20.8416L23.2459 20.859C23.2354 20.8718 23.2238 20.8846 23.2121 20.8963L23.2028 20.9056C21.6847 22.526 20.6948 24.5385 20.3365 26.729ZM24.5755 14.1143C24.4906 15.7999 25.7888 17.2552 27.4744 17.3622L27.4907 17.3634H27.507C28.4073 17.3506 29.2519 16.9016 29.7684 16.164C30.1953 15.5812 30.4303 14.853 30.4256 14.1225C30.4268 13.9526 30.4117 13.7758 30.3815 13.6025C30.2919 12.0856 29.0378 10.8955 27.5151 10.8886H27.5012C25.9866 10.8886 24.7267 12.067 24.6232 13.5757C24.5918 13.7537 24.5755 13.9352 24.5755 14.1143Z" fill="#363F32"/>
<path d="M28.0118 0H26.9881V2.88494H28.0118V0Z" fill="#363F32"/>
<path d="M1.02369 15.8203H0V16.844H1.02369V15.8203Z" fill="#363F32"/>
<path d="M4.74626 15.8203H3.72256V16.844H4.74626V15.8203Z" fill="#363F32"/>
<path d="M2.88496 13.959H1.86127V14.9827H2.88496V13.959Z" fill="#363F32"/>
<path d="M2.88496 17.6816H1.86127V18.7053H2.88496V17.6816Z" fill="#363F32"/>
<path d="M51.2775 15.8203H50.2538V16.844H51.2775V15.8203Z" fill="#363F32"/>
<path d="M55 15.8203H53.9763V16.844H55V15.8203Z" fill="#363F32"/>
<path d="M53.1387 13.959H52.1151V14.9827H53.1387V13.959Z" fill="#363F32"/>
<path d="M53.1387 17.6816H52.1151V18.7053H53.1387V17.6816Z" fill="#363F32"/>
<path d="M43.8325 1.86133H42.8088V2.88502H43.8325V1.86133Z" fill="#363F32"/>
<path d="M47.555 1.86133H46.5313V2.88502H47.555V1.86133Z" fill="#363F32"/>
<path d="M45.6937 0H44.67V1.02369H45.6937V0Z" fill="#363F32"/>
<path d="M45.6937 3.72266H44.67V4.74635H45.6937V3.72266Z" fill="#363F32"/>
<path d="M12.1913 1.86133H11.1676V2.88502H12.1913V1.86133Z" fill="#363F32"/>
<path d="M8.4687 1.86133H7.44501V2.88502H8.4687V1.86133Z" fill="#363F32"/>
<path d="M10.33 0H9.30627V1.02369H10.33V0Z" fill="#363F32"/>
<path d="M10.33 3.72266H9.30627V4.74635H10.33V3.72266Z" fill="#363F32"/>
<path d="M17.4328 2.56911L16.5464 3.08105L17.9892 5.57912L18.8756 5.06717L17.4328 2.56911Z" fill="#363F32"/>
<path d="M9.57306 10.0439L9.06152 10.9307L11.5605 12.3723L12.072 11.4855L9.57306 10.0439Z" fill="#363F32"/>
<path d="M9.39932 20.4736H6.51437V21.4973H9.39932V20.4736Z" fill="#363F32"/>
<path d="M11.5655 29.6054L9.06717 31.0479L9.57901 31.9344L12.0774 30.4919L11.5655 29.6054Z" fill="#363F32"/>
<path d="M37.5577 2.57L36.1152 5.06836L37.0017 5.5802L38.4442 3.08184L37.5577 2.57Z" fill="#363F32"/>
<path d="M45.4396 10.0331L42.9409 11.4756L43.4528 12.3622L45.9514 10.9197L45.4396 10.0331Z" fill="#363F32"/>
<path d="M48.4856 20.4736H45.6007V21.4973H48.4856V20.4736Z" fill="#363F32"/>
<path d="M43.4181 29.593L42.9062 30.4795L45.4046 31.922L45.9164 31.0354L43.4181 29.593Z" fill="#363F32"/>
<path d="M43.7999 54.9997C43.3195 54.9997 42.9112 54.6402 42.8507 54.1633L42.5273 51.5831L40.4776 53.1815C40.3089 53.3118 40.1065 53.3816 39.8924 53.3816C39.6365 53.3816 39.3969 53.2827 39.2166 53.1024L37.2623 51.1481C36.9237 50.8084 36.89 50.2651 37.1843 49.8847L38.7792 47.8339L36.2002 47.5105C35.7232 47.45 35.3638 47.0428 35.3638 46.5624V43.8008C35.3638 43.3192 35.7232 42.9108 36.2002 42.8504L38.7803 42.527L37.1797 40.4773C36.8865 40.0992 36.9202 39.5559 37.2588 39.2163L39.2131 37.2619C39.3934 37.0828 39.6342 36.9839 39.889 36.9839C40.103 36.9839 40.3066 37.0537 40.4764 37.184L42.5261 38.7789L42.8518 36.1999C42.9123 35.7229 43.3195 35.3635 43.7999 35.3623H46.5615C47.0431 35.3623 47.4515 35.7218 47.512 36.1987L47.8353 38.78L49.885 37.1794C50.0537 37.0479 50.2561 36.9793 50.4702 36.9793C50.7249 36.9793 50.9657 37.0781 51.146 37.2585L53.1003 39.2128C53.4389 39.5524 53.4726 40.0957 53.1783 40.4761L51.5834 42.5258L54.1624 42.8515C54.6394 42.912 54.9988 43.3192 54.9988 43.7996V46.5612C54.9988 47.0428 54.6394 47.4511 54.1624 47.5116L51.5823 47.835L53.183 49.8847C53.4761 50.2628 53.4423 50.806 53.1038 51.1457L51.1495 53.1C50.9692 53.2803 50.7296 53.3792 50.4737 53.3792C50.2596 53.3792 50.056 53.3094 49.8862 53.178L47.8365 51.5831L47.5108 54.1621C47.4503 54.6391 47.0431 54.9985 46.5627 54.9997H43.7999ZM42.2574 50.6304C42.3353 50.6304 42.411 50.6478 42.4819 50.6827C42.7088 50.7956 42.9484 50.8968 43.1915 50.9817C43.3776 51.0457 43.5126 51.2109 43.537 51.404L43.8627 53.9772H46.5034L46.8244 51.4063C46.8489 51.2109 46.9803 51.0492 47.1664 50.9864C47.4119 50.9014 47.6515 50.8002 47.8819 50.6851C47.947 50.6537 48.0214 50.6362 48.0994 50.6362C48.2134 50.6362 48.3251 50.6746 48.4147 50.7456L50.4643 52.3381L52.3303 50.4722L50.7389 48.4236C50.6191 48.2701 50.597 48.0584 50.6831 47.8839C50.7959 47.657 50.8971 47.4174 50.982 47.1743C51.046 46.9882 51.2112 46.8532 51.4043 46.8288L53.9763 46.5031L53.9798 43.8659L51.4066 43.5402C51.21 43.5158 51.0495 43.3843 50.9855 43.1982C50.9006 42.9527 50.7994 42.7131 50.6842 42.4828C50.6016 42.3118 50.626 42.0989 50.7482 41.9465L52.3442 39.8933L50.4772 38.0274L48.4286 39.6188C48.339 39.6886 48.2274 39.7269 48.1134 39.7269C48.0354 39.7269 47.9598 39.7095 47.8889 39.6746C47.662 39.5618 47.4224 39.4605 47.1792 39.3756C46.9931 39.3116 46.8582 39.1465 46.8349 38.9534L46.5092 36.3802H43.8685L43.5428 38.9522C43.5184 39.1453 43.3846 39.3105 43.2008 39.3733C42.9554 39.4594 42.7157 39.5594 42.4865 39.6734C42.4179 39.7072 42.3423 39.7246 42.2632 39.7246C42.1504 39.7246 42.0387 39.6862 41.9491 39.6164L39.8994 38.0251L38.0335 39.891L39.6249 41.9395C39.7447 42.0931 39.7668 42.3048 39.6807 42.4793C39.5679 42.7061 39.4667 42.9457 39.3818 43.1889C39.3178 43.375 39.1526 43.5099 38.9595 43.5344L36.3863 43.8601V46.5007L38.9572 46.8218C39.1526 46.8462 39.3143 46.9777 39.3771 47.1638C39.462 47.4093 39.5632 47.6489 39.6784 47.8792C39.761 48.0514 39.7389 48.2573 39.6179 48.412L38.0254 50.4617L39.8913 52.3276L41.9398 50.7363C42.0317 50.6688 42.1434 50.6304 42.2574 50.6304Z" fill="#363F32"/>
<path d="M45.182 49.416C42.8473 49.416 40.9476 47.5163 40.9476 45.1816C40.9476 42.8469 42.8473 40.9473 45.182 40.9473C47.5132 40.9508 49.414 42.8504 49.4163 45.1828C49.4163 47.5163 47.5167 49.416 45.182 49.416ZM45.182 41.971C43.4115 41.971 41.9713 43.4111 41.9713 45.1816C41.9713 46.9521 43.4115 48.3923 45.182 48.3923C46.9525 48.3923 48.3926 46.9521 48.3926 45.1816C48.3926 43.4111 46.9525 41.971 45.182 41.971Z" fill="#363F32"/>
<path d="M8.43613 54.9997C7.95569 54.9997 7.54739 54.6402 7.4869 54.1633L7.1635 51.582L5.11379 53.1826C4.94511 53.3129 4.74272 53.3827 4.52868 53.3827C4.27276 53.3827 4.03311 53.2838 3.85281 53.1035L1.89849 51.1492C1.55997 50.8095 1.52624 50.2663 1.82055 49.8859L3.41541 47.8362L0.836422 47.5105C0.359476 47.45 0 47.0428 0 46.5624V43.8008C0 43.3192 0.359476 42.9108 0.836422 42.8504L3.41657 42.527L1.8159 40.4773C1.52275 40.0992 1.55648 39.5559 1.89499 39.2163L3.84931 37.2619C4.02962 37.0828 4.27043 36.9839 4.52519 36.9839C4.73923 36.9839 4.94278 37.0537 5.11262 37.184L7.16234 38.7789L7.48806 36.1999C7.54855 35.7229 7.95569 35.3635 8.43613 35.3623H11.1978C11.6794 35.3623 12.0877 35.7218 12.1482 36.1987L12.4715 38.78L14.5213 37.1794C14.6899 37.0479 14.8924 36.9793 15.1064 36.9793C15.3612 36.9793 15.602 37.0781 15.7823 37.2585L17.7366 39.2128C18.0751 39.5524 18.1088 40.0957 17.8145 40.4761L16.2197 42.5258L18.7987 42.8515C19.2756 42.912 19.6351 43.3192 19.6351 43.7996V46.5612C19.6351 47.0428 19.2756 47.4511 18.7987 47.5116L16.2185 47.835L17.8192 49.8847C18.1123 50.2628 18.0786 50.806 17.7401 51.1457L15.7857 53.1C15.6054 53.2803 15.3658 53.3792 15.1099 53.3792C14.8959 53.3792 14.6923 53.3094 14.5224 53.178L12.4727 51.5831L12.147 54.1621C12.0865 54.6391 11.6794 54.9985 11.1989 54.9997H8.43613ZM6.89245 50.6304C6.97039 50.6304 7.04835 50.649 7.11815 50.6827C7.34382 50.7956 7.58344 50.8968 7.82773 50.9817C8.01386 51.0457 8.1488 51.2109 8.17322 51.404L8.49895 53.9772H11.1396L11.4607 51.4063C11.4851 51.2109 11.6165 51.0492 11.8027 50.9864C12.0481 50.9014 12.2878 50.8002 12.5181 50.6851C12.5832 50.6537 12.6577 50.6362 12.7356 50.6362C12.8496 50.6362 12.9613 50.6746 13.0509 50.7456L15.1006 52.3381L16.9665 50.4722L15.3751 48.4236C15.2553 48.2701 15.2332 48.0584 15.3193 47.8839C15.4321 47.657 15.5333 47.4174 15.6182 47.1743C15.6822 46.9882 15.8474 46.8532 16.0405 46.8288L18.6114 46.5042L18.6277 43.8682L16.0521 43.5425C15.859 43.5181 15.6939 43.3831 15.631 43.2005C15.5484 42.9597 15.4472 42.7201 15.3309 42.4862C15.246 42.3129 15.2681 42.1024 15.3867 41.9488L16.9793 39.9003L15.1122 38.0344L13.0637 39.6257C12.9741 39.6955 12.8624 39.7339 12.7496 39.7339C12.6705 39.7339 12.5949 39.7165 12.5239 39.6816C12.2982 39.5687 12.0586 39.4675 11.8143 39.3826C11.6282 39.3186 11.4932 39.1534 11.47 38.9615L11.1443 36.3883H8.50361L8.17788 38.9615C8.15345 39.1569 8.02201 39.3186 7.83588 39.3826C7.59043 39.4675 7.35078 39.5687 7.12045 39.6839C7.05298 39.7176 6.97738 39.7351 6.89827 39.7351C6.78543 39.7351 6.6726 39.6967 6.58303 39.6269L4.53331 38.0355L2.66626 39.9026L4.26228 41.9476C4.38094 42.1 4.40304 42.3118 4.31695 42.4862C4.20412 42.7119 4.1029 42.9516 4.01798 43.1958C3.954 43.382 3.78883 43.5169 3.59572 43.5413L1.02253 43.8671V46.5077L3.5934 46.8288C3.78883 46.8532 3.95051 46.9847 4.01333 47.1708C4.09824 47.4162 4.19946 47.6559 4.31463 47.8862C4.39955 48.0607 4.37861 48.2678 4.25763 48.4225L2.6651 50.4722L4.53214 52.3393L6.5772 50.7432C6.66794 50.6688 6.77845 50.6304 6.89245 50.6304Z" fill="#363F32"/>
<path d="M9.81811 49.416C7.4834 49.416 5.58374 47.5163 5.58374 45.1816C5.58374 42.8469 7.4834 40.9473 9.81811 40.9473C12.1493 40.9508 14.0501 42.8504 14.0524 45.1828C14.0524 47.5163 12.1528 49.416 9.81811 49.416ZM9.81811 41.971C8.04759 41.971 6.60743 43.4111 6.60743 45.1816C6.60743 46.9521 8.04759 48.3923 9.81811 48.3923C11.5886 48.3923 13.0287 46.9521 13.0287 45.1816C13.0287 43.4111 11.5886 41.971 9.81811 41.971Z" fill="#363F32"/>
</svg>
