<svg width="57" height="55" viewBox="0 0 57 55" fill="none" xmlns="http://www.w3.org/2000/svg">
<path d="M33.7009 45.7129H23.3983V49.5051H33.7009V45.7129Z" fill="#FD3984"/>
<path d="M53.7592 11.1973H50.0162V25.1389H53.7592V11.1973Z" fill="#FD3984"/>
<path d="M10.9874 1.83789C8.51062 1.83789 6.19148 2.56549 4.45688 3.88656C2.76697 5.1741 1.83708 6.86847 1.83708 8.65561C1.83708 10.0896 2.42944 11.4609 3.54934 12.6222C4.68376 13.8024 6.32001 14.6988 8.15521 15.1447L8.1675 15.147C8.3128 15.1749 8.44245 15.2565 8.53186 15.3772L10.9874 18.6788L13.4462 15.3772C13.5278 15.2654 13.6474 15.1872 13.7849 15.1537C15.6368 14.7077 17.2854 13.808 18.4265 12.6211C19.5464 11.4598 20.1376 10.0884 20.1376 8.65449C20.1376 6.86624 19.2077 5.17187 17.5178 3.88432C15.7832 2.56549 13.4641 1.83789 10.9874 1.83789Z" fill="#94C83D"/>
<path d="M27.101 55C25.4927 55 23.9794 54.3741 22.8427 53.2363C21.7049 52.0986 21.0791 50.5852 21.0791 48.9747V40.2212L20.8589 40.1094C18.6537 38.9918 16.7839 37.3019 15.4494 35.223C14.0233 32.9955 13.27 30.4171 13.27 27.7671C13.27 27.4084 13.2834 27.0563 13.3102 26.7188C13.3337 26.3745 13.3739 26.0247 13.4276 25.6782C13.4588 25.4659 13.641 25.306 13.8534 25.306C13.8757 25.306 13.8981 25.3083 13.9204 25.3105C14.0367 25.3273 14.1373 25.3876 14.2066 25.4793C14.277 25.5732 14.306 25.6883 14.2893 25.8045C14.2356 26.1588 14.1999 26.4796 14.1786 26.7813C14.154 27.0731 14.1429 27.3961 14.1429 27.7671C14.1429 30.2561 14.8481 32.6725 16.1837 34.7547C17.5193 36.8347 19.4037 38.4843 21.6334 39.5249L21.6513 39.5338L21.6703 39.5405C21.8391 39.5998 21.9519 39.7652 21.9519 39.9496V43.8748H26.6696V39.7451L20.2352 27.1602L19.6216 27.5145C19.5523 27.5559 19.4763 27.576 19.4014 27.576C19.2483 27.576 19.1064 27.4944 19.0304 27.3625C18.97 27.2608 18.9544 27.1446 18.9834 27.0339C19.0125 26.9222 19.0829 26.8294 19.1824 26.7724L21.7496 25.2703C21.8178 25.23 21.8938 25.2099 21.9698 25.2099C22.0492 25.2099 22.1274 25.2323 22.1967 25.2736L24.5371 26.6439L26.8853 25.2703C26.9535 25.23 27.0295 25.2099 27.1055 25.2099C27.1848 25.2099 27.2631 25.2323 27.3324 25.2736L29.6727 26.6439L32.0209 25.2703C32.0891 25.23 32.1651 25.2099 32.24 25.2099C32.3182 25.2099 32.3953 25.2312 32.4624 25.2725L35.0263 26.7724C35.1269 26.8305 35.1973 26.9233 35.2264 27.0351C35.2554 27.1468 35.2398 27.2619 35.1805 27.3614C35.1012 27.4966 34.9615 27.5771 34.8061 27.5771C34.7301 27.5771 34.6541 27.5559 34.5871 27.5168L33.9746 27.1591L27.5402 39.7462V43.8759H32.2545V39.9507C32.2545 39.782 32.3551 39.6266 32.5093 39.5562C33.6594 39.0275 34.719 38.3379 35.66 37.5086C36.6033 36.6793 37.4237 35.7159 38.0976 34.6463C38.177 34.5178 38.3134 34.4418 38.4631 34.4418C38.5436 34.4418 38.6229 34.4652 38.6922 34.5088C38.7928 34.5714 38.861 34.6687 38.8867 34.7827C38.9124 34.8944 38.8923 35.0107 38.8308 35.1079C38.1189 36.2434 37.2438 37.2717 36.2312 38.1636C35.3549 38.9314 34.3837 39.5875 33.3465 40.1117L33.1252 40.2234V48.9769C33.1252 50.5875 32.4982 52.1008 31.3615 53.2386C30.2226 54.373 28.7093 55 27.101 55ZM22.0313 49.8834C22.2135 50.9205 22.7064 51.8661 23.4574 52.6171C24.432 53.5917 25.7263 54.1293 27.0999 54.1293C28.478 54.1293 29.7711 53.5917 30.7434 52.6171C31.4934 51.8683 31.9874 50.9228 32.1729 49.8856L32.2579 49.4128H21.9486L22.0313 49.8834ZM21.9497 48.5399H32.2523V44.7477H21.9497V48.5399ZM20.9818 26.7176L27.101 38.6967L33.2246 26.7165L32.2366 26.1398L29.9018 27.5067C29.8281 27.5514 29.751 27.5738 29.6705 27.5738C29.5934 27.5738 29.5174 27.5525 29.4492 27.5134L27.101 26.1398L24.7651 27.5067C24.6913 27.5514 24.6153 27.5738 24.5349 27.5738C24.4588 27.5738 24.384 27.5536 24.3191 27.5145L21.9654 26.1398L20.9818 26.7176ZM13.9987 49.7124C13.8836 49.7124 13.7751 49.6665 13.6936 49.5849C13.6097 49.5011 13.5628 49.3927 13.5628 49.2776C13.5628 49.1613 13.6086 49.0507 13.6924 48.9669L15.5802 47.0791H8.1835C6.91384 47.0791 5.71683 46.5807 4.81152 45.6765C3.90734 44.7723 3.40886 43.5731 3.40886 42.3012V18.1631C3.40886 17.9217 3.60333 17.7261 3.84251 17.7261C4.08393 17.7261 4.27952 17.9217 4.27952 18.1631V42.3012C4.27952 43.3406 4.68746 44.3196 5.42735 45.0607C6.16724 45.8005 7.14631 46.2085 8.1835 46.2085H15.5779L13.6924 44.3185C13.6086 44.2358 13.5628 44.1263 13.5628 44.0101C13.5628 43.8938 13.6086 43.7854 13.6902 43.7038C13.7729 43.6211 13.8824 43.5753 13.9987 43.5753C14.1149 43.5753 14.2256 43.6211 14.3094 43.7038L16.9381 46.3326C17.0208 46.413 17.0678 46.527 17.0678 46.6433C17.0678 46.7617 17.0219 46.8724 16.9381 46.9551L14.3094 49.5838C14.2244 49.6665 14.1149 49.7124 13.9987 49.7124ZM37.4896 47.1328C37.2482 47.1328 37.0526 46.9372 37.0526 46.6958C37.0526 46.4566 37.2493 46.2621 37.4896 46.2621H45.9358C46.9707 46.2621 47.9509 45.8553 48.6942 45.1154C49.4352 44.3744 49.842 43.3965 49.842 42.3593V33.9187L47.952 35.8042C47.8693 35.8869 47.7609 35.9316 47.6436 35.9316C47.5273 35.9316 47.4178 35.8869 47.3351 35.8042C47.2535 35.7226 47.2077 35.6131 47.2077 35.4968C47.2077 35.3806 47.2524 35.2711 47.3351 35.1895L49.9649 32.5596C50.0499 32.4747 50.1605 32.4278 50.2757 32.4278C50.3908 32.4278 50.5037 32.4747 50.5841 32.5574L53.2173 35.1895C53.3012 35.2722 53.347 35.3817 53.347 35.4968C53.347 35.612 53.3012 35.7215 53.2196 35.8031C53.1369 35.8858 53.0273 35.9316 52.9111 35.9316C52.7949 35.9316 52.6842 35.8858 52.6004 35.8031L50.7138 33.9165V42.3582C50.7138 43.6278 50.2153 44.8248 49.3111 45.7301C48.4069 46.6354 47.2077 47.1328 45.9369 47.1328H37.4896ZM39.9965 31.8455C39.9585 31.8455 39.9194 31.8399 39.8814 31.8298C39.6512 31.765 39.516 31.5247 39.5808 31.2945C39.7395 30.73 39.8624 30.1444 39.944 29.5543C40.0245 28.9641 40.0647 28.3628 40.0647 27.766C40.0647 24.3057 38.7168 21.05 36.2692 18.5978C33.817 16.1502 30.5613 14.8012 27.101 14.8012C24.6254 14.8012 22.2191 15.4997 20.1425 16.8219C18.0524 18.1541 16.3938 20.0463 15.3466 22.2951C15.275 22.4482 15.1197 22.5477 14.952 22.5477C14.8883 22.5477 14.8257 22.5331 14.7665 22.5063C14.5497 22.4057 14.4547 22.1464 14.5564 21.9274C15.6729 19.5333 17.4444 17.5171 19.6786 16.0943C21.6558 14.8313 23.9414 14.0914 26.2885 13.9551L26.6673 13.9327V0.437005C26.6673 0.19559 26.8618 0 27.101 0H39.6434C39.8848 0 40.0804 0.19559 40.0804 0.437005C40.0804 0.676184 39.8848 0.870656 39.6434 0.870656H27.538V13.9339L27.9191 13.954C28.4243 13.9808 28.934 14.0389 29.4335 14.1261L29.9052 14.2077V11.3789C29.9052 11.1397 30.1008 10.9452 30.3422 10.9452H35.2789C35.5181 10.9452 35.7126 11.1397 35.7126 11.3789V16.9337L35.8601 17.0544C36.2211 17.3505 36.5664 17.6624 36.885 17.9809C37.256 18.352 37.6048 18.742 37.9222 19.141L38.6397 20.043V5.41506C38.6397 5.17364 38.8342 4.97805 39.0734 4.97805H44.0123C44.2515 4.97805 44.4459 5.17364 44.4459 5.41506V23.8028C44.4459 24.0442 44.2515 24.2398 44.0123 24.2398H40.495L40.6034 24.7293C40.7241 25.2714 40.8113 25.8146 40.865 26.3455L40.9018 26.7076H55.5477V0.871774H43.4423C43.2009 0.871774 43.0053 0.677301 43.0053 0.438122C43.0053 0.196708 43.2009 0.00111758 43.4423 0.00111758H55.9858C56.225 0.00111758 56.4194 0.196708 56.4194 0.438122V27.1423C56.4194 27.3838 56.225 27.5794 55.9858 27.5794H40.9432L40.9365 27.975C40.9276 28.5182 40.8828 29.0871 40.8035 29.666C40.7208 30.2841 40.59 30.91 40.4157 31.528C40.3631 31.7147 40.191 31.8455 39.9977 31.8455H39.9965ZM39.5104 21.6401L39.5517 21.7239C39.7585 22.1453 39.953 22.6091 40.1295 23.102L40.2257 23.368H43.5753V5.85206H39.5104V21.6401ZM30.7759 14.4212L31.0631 14.5072C32.1696 14.838 33.2358 15.3086 34.2305 15.9076L34.8408 16.2754V11.8192H30.7759V14.4212ZM47.8079 24.2398C47.5687 24.2398 47.3742 24.0442 47.3742 23.8028V8.66856C47.3742 8.42938 47.5687 8.23491 47.8079 8.23491H52.7434C52.9849 8.23491 53.1805 8.42938 53.1805 8.66856V23.8028C53.1805 24.0442 52.9837 24.2398 52.7434 24.2398H47.8079ZM48.246 23.3691H52.3109V9.10557H48.246V23.3691ZM10.1841 19.302C10.041 19.302 9.9114 19.236 9.82869 19.1209L6.99319 15.3075L6.85684 15.2717C4.91323 14.7565 3.23451 13.8087 2.00284 12.5301C0.692949 11.1688 0 9.55151 0 7.85044C0 5.73136 1.07519 3.74751 3.02886 2.26214C4.94676 0.803597 7.48832 0 10.183 0C12.8765 0 15.4192 0.803597 17.3405 2.26214C19.2908 3.74751 20.3649 5.73247 20.3649 7.85044C20.3649 9.5504 19.6719 11.1688 18.3609 12.5301C17.1292 13.8087 15.4505 14.7565 13.5069 15.2717L13.3706 15.3075L10.5306 19.1265C10.449 19.2383 10.3216 19.302 10.1841 19.302ZM10.183 0.871774C7.67161 0.871774 5.31782 1.61055 3.55527 2.95286C1.82402 4.27169 0.871774 6.01189 0.871774 7.85044C0.871774 9.32686 1.47978 10.7362 2.62873 11.9288C3.78439 13.1314 5.44747 14.0423 7.31284 14.496L7.32737 14.4994C7.43802 14.5206 7.5319 14.5799 7.59785 14.6682L10.183 18.143L12.7715 14.6682C12.8307 14.5866 12.9179 14.5296 13.0185 14.505C14.9006 14.0512 16.576 13.1358 17.7384 11.9277C18.8873 10.7362 19.4953 9.32575 19.4953 7.85044C19.4953 6.01077 18.542 4.27169 16.8118 2.95286C15.0482 1.61055 12.6944 0.871774 10.183 0.871774ZM6.51707 11.3957C6.27566 11.3957 6.08007 11.2001 6.08007 10.9586C6.08007 10.7195 6.27566 10.525 6.51707 10.525H11.9858C12.225 10.525 12.4194 10.7195 12.4194 10.9586C12.4194 11.2001 12.225 11.3957 11.9858 11.3957H6.51707ZM6.51707 8.28856C6.27566 8.28856 6.08007 8.09297 6.08007 7.85155C6.08007 7.61238 6.27566 7.4179 6.51707 7.4179H13.8478C14.0892 7.4179 14.2848 7.61238 14.2848 7.85155C14.2848 8.09297 14.0892 8.28856 13.8478 8.28856H6.51707ZM6.51707 5.18035C6.27566 5.18035 6.08007 4.98588 6.08007 4.7467C6.08007 4.50528 6.27566 4.30969 6.51707 4.30969H13.8478C14.0892 4.30969 14.2848 4.50528 14.2848 4.7467C14.2848 4.98588 14.0892 5.18035 13.8478 5.18035H6.51707Z" fill="#363F32"/>
</svg>
